/* XPM */
static char *_bd91418738941f0880ecadc041bf36edeUmzdKUwk9uoCw5[] = {
/* columns rows colors chars-per-pixel */
"64 64 119 2 ",
"   c #FFE5FF",
".  c #FFE0FF",
"X  c #FFCCFF",
"o  c #FACCF6",
"O  c #F9CCF3",
"+  c #FECCFE",
"@  c #FDCBFD",
"#  c #FDCAFD",
"$  c #FCCAFC",
"%  c #FBCAFB",
"&  c #FBC9FB",
"*  c #F9C8F9",
"=  c #F6C7F6",
"-  c #F3C5F3",
";  c #F1C3F1",
":  c #EFC2EF",
">  c #EDC0ED",
",  c #ECC0EC",
"<  c #F0C2F0",
"1  c #F6C6F6",
"2  c #FAC8FA",
"3  c #F2C4F2",
"4  c #EEC1EE",
"5  c #F3C4F3",
"6  c #F8C7F8",
"7  c #FECBFE",
"8  c #F5C6F5",
"9  c #ECC0ED",
"0  c #ECBFED",
"q  c #F4C5F4",
"w  c #F8C8F8",
"e  c #ECBFEC",
"r  c #EBC2E8",
"t  c #EAC7E2",
"y  c #EACADE",
"u  c #EACDDA",
"i  c #E9D0D6",
"p  c #E9D1D5",
"a  c #EACDDB",
"s  c #EACBDD",
"d  c #EBC7E2",
"f  c #EBC3E7",
"g  c #EBC1E9",
"h  c #EAC8E0",
"j  c #E9CFD7",
"k  c #E9D3D1",
"l  c #E8D6CE",
"z  c #E8D9CA",
"x  c #E7DBC7",
"c  c #E7DDC4",
"v  c #E7DFC1",
"b  c #E7E0C1",
"n  c #E7DCC6",
"m  c #E8D6CD",
"M  c #E9D3D2",
"N  c #E9CFD8",
"B  c #EAC7E1",
"V  c #ECC1EB",
"C  c #F5C5F5",
"Z  c #EAC9DF",
"A  c #E9D0D5",
"S  c #E8D7CD",
"D  c #E7DAC8",
"F  c #E7DEC4",
"G  c #E7DFC2",
"H  c #E8DAC8",
"J  c #E8D5CF",
"K  c #EBC3E6",
"L  c #ECC0EB",
"P  c #F7C7F7",
"I  c #FAC9FA",
"U  c #ECC2EA",
"Y  c #E9CFD6",
"T  c #E8D8CB",
"R  c #E7DDC5",
"E  c #E8D9C9",
"W  c #E9D1D4",
"Q  c #EBC7E1",
"!  c #ECC1EA",
"~  c #EDC1ED",
"^  c #E8D7CC",
"/  c #E7DEC3",
"(  c #E7DCC5",
")  c #EACCDB",
"_  c #EBC5E5",
"`  c #ECC2E9",
"'  c #EBC6E3",
"]  c #EBC4E6",
"[  c #EBC3E8",
"{  c #ECC3E8",
"}  c #E7DFC3",
"|  c #E9D2D3",
" . c #E9CED8",
".. c #E9CCDA",
"X. c #E9CDDA",
"o. c #E6DEC1",
"O. c #E6DEC2",
"+. c #E5DEC1",
"@. c #E2DBBE",
"#. c #E3DCC0",
"$. c #E3DBBF",
"%. c #E1DABE",
"&. c #E0D9BD",
"*. c #E5DEC0",
"=. c #E3DCBF",
"-. c #E4DDC0",
";. c #E1DABD",
":. c #E5DDC1",
">. c #E1D9BD",
",. c #E0DABD",
"<. c #E2DBBF",
"1. c #E4DCBF",
"2. c #E5DDC0",
"3. c #E7DEC2",
"4. c #E4DCC0",
"5. c #E6DFC2",
"6. c #E3DBBE",
"7. c #E2DABE",
"8. c white",
/* pixels */
"                                                                                                                                ",
". . . . . . . . . . . . . . . . . . . . . . . . . . . . . . . . . . . . . . . . . . . . . . . . . . . . . . . . . . . . . . . . ",
"X X X X X X X X X X X X X X X X X X X X X X X X X X X X X X X X X X X X X X X X X X X X X X X X X X X X X X X X X X X X X X X X ",
"X X X X X X X X X X X X X X X X X X X X X X X X X X X X X X X X X X X X X X X X X X X X X X X X X X X X X X X X X X X X X X X X ",
"X X X X X X X X X X X X X X X X X X X X X X X X X X X X X X X X X X X X X X X X X X X X X X X X X X X X X X X X X X X X X X X X ",
"X X X X X X X X X X X X X X X X X X X X X X X X X X X X X X X X X X X X X X X X X X X X X X X X X X X X X X X X X X X X X X X X ",
"X X X X X X X X X X X X X X X X X X X X X X X X X X X X X X X X X X X X X X X X X X X X X X X X X X X X X X X X X X X X X X X X ",
"X X X X X X X X X X X X X X X X X X X X X X X X X X X X X X X X X X X X X X X X X X X X X X X X X X X X X X X X X X X X X X X X ",
"o X X X X X X X X X X X X X X X X X X X X X X X X X X X X X X X X X X X X X X X X X X X X X X X X X X X X X X X X X X X X X X X ",
"O X X X X X X X X X X X X X X X X X X X X X X X X X X X X X X X X X X X X X X X X X X X X X X X X X X X X X X X X X X X X X X X ",
"+ X X X X X X X X X X X X X X X X X X X X X X X X X X X X X X X X X X X X X X X X X X X X X X X X X X X X X X X X X X X X X X X ",
"X X X X X X X X X X X X X X X X X X X X X X X X X X X X X X X X X X X X X X X X X X X X X X X X X X X X X X X X X X X X X X X X ",
"X X X X X X X X X X X X X X X X X X X X X X X X X X X X X X X X X X X X X X X X + @ # $ % % % % % % % % % $ $ @ + X X X X X X X ",
"X X X X X X X X X X X X X X X X X X X X X X X X X X X X X X X X X X X X X @ & * = - ; : > , , , , , , , , : < - 1 * & @ X X X X ",
"X X X X X X X X X X X X X X X X X X X X X X X X X X X X X X X X X + $ 2 1 3 4 , , , , , , , , , , , , , , , , , , , 4 5 6 % 7 X ",
"X X X X X X X X X X X X X X X X X X X X X X X X X X X X X X X X 2 8 ; 4 , , , , , 9 0 0 0 0 0 0 0 0 0 0 0 0 0 9 , , , , , < q * ",
"1 w @ X X X X X X X X X X X X X X X X X X X X X X X X X X 7 2 1 : , , , , 9 0 e r t y u i p p p p p p p p a s d f e 0 9 , , , 4 ",
", 4 ; 1 & 7 X X X X X X X X X X X X X X X X X X X X X 7 * 5 : , , , , , g h j k l z x c v b b b b b b b b c n z m M N B V 9 , , ",
", , , > : ; C * @ X X X X X X X X X X X X X X X @ * C ; 4 , , , , r Z A S D F b b v G G G G G G G G G G G G G v b v c H J u K , ",
"V L , , , , > 4 : ; C P I & & & & & & & & 6 1 3 : 4 > , , , , U Y T x F v G G G G G G G G G G G G G G G G G G G G G G v G R E p ",
"S W Q ! V , , , , , > ~ 4 4 4 4 4 4 4 4 4 ~ ~ , , , , , V K j ^ c G G G G G G G G G G G G G G G G G G G G G G G G G G G G G G / ",
"G / ( l ) _ ` ! , , , , , , , , , , , , , , , , , ! ` ' Y H / G G G G G G G G G G G G G G G G G G G G G G G G G G G G G G G G G ",
"G G G G / ( ^ j B ] [ ` ! V V V V V V V V ` { ] h Y ^ R / G G G G G G G G G G G G G G G G G G G G G G G G G G G G G G G G G G G ",
"G G G G G G G G } n l |  ...............X.W J x G G G G G G G G G G G G G G G G G G G G G G G G G G G G G G G G G G G G G G G G ",
"G G G G G G G G G G o.G G G G G G G G G G G G G G G G G G G G O.O.G G G G G G G G G G G G G G G G G G G G o.G G G G G G G G G G ",
"G G G G G G G G G +.@.#.O.G G G G G G G G G G G G G G G G G o.$.$.o.G G G G G G G G G G G G G G G G G O.#.@.+.G G G G G G G G G ",
"G G G G G G G G +.%.&.&.#.O.G G G G G G G G G G G G G G G o.$.&.&.$.o.G G G G G G G G G G G G G G G O.#.&.&.%.+.G G G G G G G G ",
"G G G G G G G *.%.&.&.&.&.=.O.G G G G G G G G G G G G G o.$.&.&.&.&.$.o.G G G G G G G G G G G G G O.=.&.&.&.&.%.*.G G G G G G G ",
"G G G G G G *.%.&.&.&.&.&.&.=.O.G G G G G G G G G G G o.$.&.&.&.&.&.&.$.o.G G G G G G G G G G G O.=.&.&.&.&.&.&.%.*.G G G G G G ",
"G G G G G +.%.&.&.&.&.&.&.&.&.=.O.G G G G G G G G G o.$.&.&.&.&.&.&.&.&.$.o.G G G G G G G G G O.=.&.&.&.&.&.&.&.&.%.+.G G G G G ",
"G G G G -.;.&.&.&.&.&.&.&.&.&.&.#.O.G G G G G G G +.@.&.&.&.&.&.&.&.&.&.&.@.+.G G G G G G G O.#.&.&.&.&.&.&.&.&.&.&.;.-.G G G G ",
"G G G -.;.&.&.&.&.&.&.&.&.&.&.&.&.#.O.G G G G G +.%.&.&.&.&.&.&.&.&.&.&.&.&.%.+.G G G G G O.#.&.&.&.&.&.&.&.&.&.&.&.&.;.-.G G G ",
"G G -.;.&.&.&.&.&.&.&.&.&.&.&.&.&.&.#.O.G G G +.%.&.&.&.&.&.&.&.&.&.&.&.&.&.&.%.+.G G G O.#.&.&.&.&.&.&.&.&.&.&.&.&.&.&.;.-.G G ",
"G -.;.&.&.&.&.&.&.&.&.&.&.&.&.&.&.&.&.#.O.G +.%.&.&.&.&.&.&.&.&.&.&.&.&.&.&.&.&.%.+.G O.#.&.&.&.&.&.&.&.&.&.&.&.&.&.&.&.&.;.-.G ",
"-.;.&.&.&.&.&.&.&.&.&.&.&.&.&.&.&.&.&.&.#.:.%.&.&.&.&.&.&.&.&.&.&.&.&.&.&.&.&.&.&.%.:.#.&.&.&.&.&.&.&.&.&.&.&.&.&.&.&.&.&.&.;.-.",
";.&.&.&.&.&.&.&.&.&.&.&.&.&.&.&.&.&.&.&.&.>.&.&.&.&.&.&.&.&.&.&.&.&.&.&.&.&.&.&.&.&.>.&.&.&.&.&.&.&.&.&.&.&.&.&.&.&.&.&.&.&.&.;.",
"&.&.&.&.&.&.&.&.&.&.&.&.&.&.&.&.&.&.&.&.&.&.&.&.&.&.&.&.&.&.&.&.&.&.&.&.&.&.&.&.&.&.&.&.&.&.&.&.&.&.&.&.&.&.&.&.&.&.&.&.&.&.&.&.",
"&.&.&.&.&.&.&.&.&.&.&.&.&.&.&.&.&.&.&.&.&.&.&.&.&.&.&.&.&.&.&.&.&.&.&.&.&.&.&.&.&.&.&.&.&.&.&.&.&.&.&.&.&.&.&.&.&.&.&.&.&.&.&.&.",
"&.&.&.&.&.&.&.&.&.&.%.,.&.&.&.&.&.&.&.&.&.&.&.&.&.&.&.&.&.&.&.;.;.&.&.&.&.&.&.&.&.&.&.&.&.&.&.&.&.&.&.&.,.%.&.&.&.&.&.&.&.&.&.&.",
"&.&.&.&.&.&.&.&.&.<.+.1.;.&.&.&.&.&.&.&.&.&.&.&.&.&.&.&.&.&.%.2.2.%.&.&.&.&.&.&.&.&.&.&.&.&.&.&.&.&.&.;.1.+.<.&.&.&.&.&.&.&.&.&.",
"&.&.&.&.&.&.&.&.<.o.G G 1.;.&.&.&.&.&.&.&.&.&.&.&.&.&.&.&.%.+.G G +.%.&.&.&.&.&.&.&.&.&.&.&.&.&.&.&.;.1.G G o.<.&.&.&.&.&.&.&.&.",
"&.&.&.&.&.&.&.<.o.G G G G 1.;.&.&.&.&.&.&.&.&.&.&.&.&.&.%.+.G G G G +.%.&.&.&.&.&.&.&.&.&.&.&.&.&.;.1.G G G G o.<.&.&.&.&.&.&.&.",
"&.&.&.&.&.&.<.o.G G G G G G 1.;.&.&.&.&.&.&.&.&.&.&.&.%.2.G G G G G G 2.%.&.&.&.&.&.&.&.&.&.&.&.;.1.G G G G G G o.<.&.&.&.&.&.&.",
"&.&.&.&.&.<.o.G G G G G G G G 1.;.&.&.&.&.&.&.&.&.&.%.2.G G G G G G G G 2.%.&.&.&.&.&.&.&.&.&.;.1.G G G G G G G G o.<.&.&.&.&.&.",
"&.&.&.&.<.o.G G G G G G G G G G 1.;.&.&.&.&.&.&.&.<.o.G G G G G G G G G G o.<.&.&.&.&.&.&.&.;.1.G G G G G G G G G G O.$.&.&.&.&.",
"&.&.&.$.O.G G G G G G G G G G G G 1.;.&.&.&.&.&.<.o.G G G G G G G G G G G G o.<.&.&.&.&.&.;.1.G G G G G G G G G G G G O.$.&.&.&.",
"&.&.$.O.G G G G G G G G G G G G G G 1.;.&.&.&.<.o.G G G G G G G G G G G G G G o.<.&.&.&.;.1.G G G G G G G G G G G G G G O.$.&.&.",
"&.$.O.G G G G G G G G G G G G G G G G 1.;.&.<.o.G G G G G G G G G G G G G G G G o.<.&.;.1.G G G G G G G G G G G G G G G G O.$.&.",
"=.O.G G G G G G G G G G G G G G G G G G 1.$.o.G G G G G G G G G G G G G G G G G G o.$.1.G G G G G G G G G G G G G G G G G G O.=.",
"3.G G G G G G G G G G G G G G G G G G G G o.G G G G G G G G G G G G G G G G G G G G o.G G G G G G G G G G G G G G G G G G G G 3.",
"G G G G G G G G G G G G G G G G G G G G G G G G G G G G G G G G G G G G G G G G G G G G G G G G G G G G G G G G G G G G G G G G ",
"G G G G G G G G G G G G G G G G G G G G G G G G G G G G G G G G G G G G G G G G G G G G G G G G G G G G G G G G G G G G G G G G ",
"G G G G G G G G G G 4.:.G G G G G G G G G G G G G G G G G G G 2.2.G G G G G G G G G G G G G G G G G G G o.=.o.G G G G G G G G G ",
"G G G G G G G G G =.&.%.:.G G G G G G G G G G G G G G G G G 4.%.%.4.G G G G G G G G G G G G G G G G G o.@.&.@.o.G G G G G G G G ",
"G G G G G G G 5.=.&.&.&.%.:.G G G G G G G G G G G G G G G 4.%.&.&.%.4.G G G G G G G G G G G G G G G o.@.&.&.&.@.o.G G G G G G G ",
"G G G G G G o.6.&.&.&.&.&.%.:.G G G G G G G G G G G G G 4.%.&.&.&.&.%.4.G G G G G G G G G G G G G o.@.&.&.&.&.&.@.o.G G G G G G ",
"G G G G G o.@.&.&.&.&.&.&.&.%.:.G G G G G G G G G G G 4.%.&.&.&.&.&.&.%.4.G G G G G G G G G G G o.@.&.&.&.&.&.&.&.@.o.G G G G G ",
"G G G G o.@.&.&.&.&.&.&.&.&.&.%.2.G G G G G G G G G 4.%.&.&.&.&.&.&.&.&.%.4.5.G G G G G G G G :.@.&.&.&.&.&.&.&.&.&.@.o.G G G G ",
"G G G o.@.&.&.&.&.&.&.&.&.&.&.&.%.4.G G G G G G G 4.%.&.&.&.&.&.&.&.&.&.&.&.=.5.G G G G G G :.%.&.&.&.&.&.&.&.&.&.&.&.@.o.G G G ",
"G G 5.=.&.&.&.&.&.&.&.&.&.&.&.&.&.%.4.G G G G G 4.%.&.&.&.&.&.&.&.&.&.&.&.&.&.=.G G G G G :.%.&.&.&.&.&.&.&.&.&.&.&.&.&.@.o.G G ",
"G o.@.&.&.&.&.&.&.&.&.&.&.&.&.&.&.&.%.4.G G G 4.%.&.&.&.&.&.&.&.&.&.&.&.&.&.&.&.=.G G G :.%.&.&.&.&.&.&.&.&.&.&.&.&.&.&.&.@.o.G ",
"G $.&.&.&.&.&.&.&.&.&.&.&.&.&.&.&.&.&.%.4.G 4.%.&.&.&.&.&.&.&.&.&.&.&.&.&.&.&.&.&.=.G :.%.&.&.&.&.&.&.&.&.&.&.&.&.&.&.&.&.&.@.o.",
"6.&.&.&.&.&.&.&.&.&.&.&.&.&.&.&.&.&.&.&.%.@.;.&.&.&.&.&.&.&.&.&.&.&.&.&.&.&.&.&.&.&.@.%.&.&.&.&.&.&.&.&.&.&.&.&.&.&.&.&.&.&.&.7.",
"&.&.&.&.&.&.&.&.&.&.&.&.&.&.&.&.&.&.&.&.&.&.&.&.&.&.&.&.&.&.&.&.&.&.&.&.&.&.&.&.&.&.&.&.&.&.&.&.&.&.&.&.&.&.&.&.&.&.&.&.&.&.&.&."
};
