/* XPM */
static char *_f7c8bffb73a4bb280d345096ee56f1dhXuzva6oKkwlEW1f[] = {
/* columns rows colors chars-per-pixel */
"64 64 79 1 ",
"  c #93A3A3",
". c #91A0A0",
"X c #869595",
"o c #899898",
"O c #879696",
"+ c #8E9D9D",
"@ c #8D9C9C",
"# c #8C9B9B",
"$ c #99A9A9",
"% c #889797",
"& c #98A8A8",
"* c #A0B0B0",
"= c #8C9C9C",
"- c #8B9A9A",
"; c #97A7A7",
": c #9AAAAA",
"> c #909F9F",
", c #A1B1B1",
"< c #A3B3B4",
"1 c #A2B2B3",
"2 c #A6B7B8",
"3 c #A6B8B8",
"4 c #AABEBF",
"5 c #A4B6B7",
"6 c #A1B1B2",
"7 c #A1B0B0",
"8 c #A1B1B0",
"9 c #A4B5B6",
"0 c #ACC0C1",
"q c #ABBEBF",
"w c #A7BABA",
"e c #A6B8B9",
"r c #ABBCBC",
"t c #AEBEBE",
"y c #ADBDBE",
"u c #A7B9BA",
"i c #ACC0C2",
"p c #B7C8C9",
"a c #BCCCCD",
"s c #AFC2C3",
"d c #B6C8C9",
"f c #BBCBCC",
"g c #AEC2C3",
"h c #B5C7C8",
"j c #BACACB",
"k c #AEC1C2",
"l c #B1C4C5",
"z c #B9CACB",
"x c #ADC1C2",
"c c #B3C5C6",
"v c #B6C7C8",
"b c #ADC0C1",
"n c #ABBFC0",
"m c #AABDBE",
"M c #A9BDBE",
"N c #A1B2B2",
"B c #A5B6B7",
"V c #A5B7B7",
"C c #A9BCBD",
"Z c #A6B9B9",
"A c #A8BBBB",
"S c #A3B4B4",
"D c #A3B5B5",
"F c #ACBFC0",
"G c #A3B4B5",
"H c #A7B8B9",
"J c #A2B2B2",
"K c #A2B3B3",
"L c #A4B4B5",
"P c #B0C3C4",
"I c #AFC3C4",
"U c #B8C9CA",
"Y c #B2C4C5",
"T c #B5C6C7",
"R c #A5B7B8",
"E c #A4B6B6",
"W c #B1C3C4",
"Q c #B4C6C7",
"! c white",
/* pixels */
"                                                                ",
"................................................................",
"XXXXXXXXXXXXXXXXXXXXXXXXXXXXXXXXXXXXXXXXXXXXXXXXXXXXXXXXXXXXXXXX",
"XXXXXXXXXXXXXXXXXXXXXXXXXXXXXXXXXXXXXXXXXXXXXXXXXXXXXXXXXXXXXXXX",
"XXXXXXXXXXXXXXXXXXXXXXXXXXXXXXXXXXXXXXXXXXXXXXXXXXXXXXXXXXXXXXXX",
"XXXXXXXXXXXXXXXXXXXXXXXXXXXXXXXXXXXXXXXXXXXXXXXXXXXXXXXXXXXXXXXX",
"XXXXXXXXXXXXXXXXXXXXXXXXXXXXXXXXXXXXXXXXXXXXXXXXXXXXXXXXXXXXXXXX",
"XXXXXXXXXXXXXXXXXXXXXXXXXXXXXXXXXXXXXXXXXXXXXXXXXXXXXXXXXXXXXXXX",
"XXXXXXXXXXXXXXXXXXXXXXXXXXXXXXXXXXXXXXXXXXXXXXXXXXXXXXXXXXXXXXXX",
"XXXXXXXXXXXXXXXXXXXXXXXXXXXXXXXXXXXXXXXXXXXXXXXXXXXXXXXXXXXXXXXX",
"XXXXXXXXXXXXXXXXXXXXXXXXXXXXXXXXXXXXXXXXXXXXXXXXXXXXXXXXXXXXXXXX",
"XXXXXXXXXXXXXXXXXXXXXXXXXXXXXXXXXXXXXXXXXXXXXXXXXXXXXXXXXXXXXXXX",
"XXXXXXXXXXXXXXXXXXXXXXXXXXXXXXXXXXXXXXXXXXXXXXXXXXXXXXXXXXXXXXXX",
"XXXXXXXXXXXXXXXXXXXXXXXXXXXXXXXXXXXXXXXXXXXXXXXXXXXXXXXXXXXXXXXX",
"XXXXXXXXXXXXXXXXXXXXXXXXXXXXXXXXXXXXXXXXXXXXXXXXXXXXXXXXXXXXXXXX",
"XXXXXXXXXXXXXXXXXXXXXXXXXXXXXXXXXXXXXXXXXXXXXXXXXXXXXXXXXXXXXXXX",
"XXXXXXXXXXXXXXXXXXXXXXXXXXXXXXXXXXXXXXXXXXXXXXXXXXXXXXXXXXXXXXXX",
"XXXXXXXXXXXXXXXXXXXXXXXXXXXXXXXXXXXXXXXXXXXXXXXXXXXXXXXXXXXXXXXX",
"oXXXXXXXXXXXXXXXXXXXXXXXXXXXXXXOOXXXXXXXXXXXXXXXXXXXXXXXXXXXXXXo",
"+XXXXXXXXXXXXXXXXXXXXXXXXXXXXXX@#XXXXXXXXXXXXXXXXXXXXXXXXXXXXXX+",
"$%XXXXXXXXXXXXXXXXXXXXXXXXXXXX%$&%XXXXXXXXXXXXXXXXXXXXXXXXXXXX%$",
"*$=oooooooooooooooooooooooooo-;**:>oooooooooooooooooooooooooo=$*",
",,****************************,,,,****************************,,",
"<,,,,,,,,,,,,,,,,,,,,,,,,,,,,,,11,,,,,,,,,,,,,,,,,,,,,,,,,,,,,,<",
"2,,,,,,,,,,,,,,,,,,,,,,,,,,,,,,33,,,,,,,,,,,,,,,,,,,,,,,,,,,,,,2",
"4567888*************788888888,9449,88888888888888888888888887654",
"0qweeeertttttttttttyueeeeeeeeu4004ueeeeeeeeeeeeeeeeeeeeeeeeeewq0",
"000iii0paaaaaaaaaaaas0iiiiiii000000iiiiiiiiiiiiiiiiiiiiiiiiii000",
"0000000dffffffffffffg0000000000000000000000000000000000000000000",
"0000000hfffffffffffjk0000000000000000000000000000000000000000000",
"0000000lzffffffffffhx0000000000000000000000000000000000000000000",
"00000000czjjjjjjjjvg00000000000000000000000000000000000000000000",
"000000000xxxxxxxxxb000000000000000000000000000000000000000000000",
"0000000n4mmmm4n0000000000000000000000000000000000000000000000000",
"000000M5<6,,N<Bm000000000000000000000000000000000000000000000000",
"0000002,,,,,,,,e000000000000000000000000000000000000000000000000",
"000000V,,,,,,,83i00000000000000000000000000000000000000000000000",
"00000iV,,,,,,,83i00000000000000000000000000000iiiiii000000000000",
"00000iV,,,,,,,83i00000000000000000000000000CueVVVVVVZum000000000",
"00000iV,,,,,,,83i0000000000000000000000000ASN6,,,,,,6NDC00000000",
"00000iV,,,,,,,,3i000000000000000000000000FG,,,,,,,,,,,,500000000",
"000000H6,,,,,,Nu0000000000000000000000000F1,,,,,,,,,,,,G00000000",
"000000451JJJJ1B40000000000000000000000000FK,,,,,,,,,,,,L00000000",
"0000000FnnnnnnF00000000000000000000000000FK,,,,,,,,,,,,L00000000",
"00000000000000000000000000000000000000000FK,,,,,,,,,,,,L00000000",
"00000000000000000000000000000xsPPPPPPIsb0FK,,,,,,,,,,,,L00000000",
"0000000000000000000000000000ghUjfffffjUYxnK,,,,,,,,,,,,L00000000",
"0000000000000000000000000000TffffffffffjsnK,,,,,,,,,,,,L00000000",
"0000000000000000000000000000vfffffffffffPn1,,,,,,,,,,,,L00000000",
"0000000000000000000000000000vfffffffffffIn<,,,,,,,,,,,,900000000",
"0000000000000000000000000000vfffffffffffInR,,,,,,,,,,,Je00000000",
"0000000000000000000000000000vfffffffffffI04E,,,,,,,,,NRn00000000",
"0000000000000000000000000000vfffffffffffI00n444444444qn000000000",
"0000000000000000000000000000vfffffffffffI00000000000000000000000",
"0000000000000000000000000000vfffffffffffI00000000000000000000000",
"0000000000000000000000000000Tfffffffffffs00000000000000000000000",
"0000000000000000000000000000PUfffffffffhx00000000000000000000000",
"00000000000000000000000000000WThhhhhhhQg000000000000000000000000",
"0000000000000000000000000000000000000000000000000000000000000000",
"0000000000000000000000000000000000000000000000000000000000000000",
"0000000000000000000000000000000000000000000000000000000000000000",
"0000000000000000000000000000000000000000000000000000000000000000",
"0000000000000000000000000000000000000000000000000000000000000000",
"0000000000000000000000000000000000000000000000000000000000000000"
};
