/* XPM */
static char *_12dd9ec99004e74dfaf82ea3c6b00f1Qgzxpy2KrRFExKZc[] = {
/* columns rows colors chars-per-pixel */
"64 64 112 2 ",
"   c #F5F0DC",
".  c #F2EDD7",
"X  c #E7DFC2",
"o  c #E3DABD",
"O  c #E6DEC1",
"+  c #E4DCBF",
"@  c #E8E0C3",
"#  c #DDD3B7",
"$  c #AF9D81",
"%  c #CABDA1",
"&  c #E5DDC0",
"*  c #E2D9BC",
"=  c #BCAC90",
"-  c #DCD3B6",
";  c #A49175",
":  c #7F6449",
">  c #8A7155",
",  c #C7BA9E",
"<  c #B8A78B",
"1  c #82674C",
"2  c #E9E1C4",
"3  c #DCD2B5",
"4  c #A59175",
"5  c #7F6348",
"6  c #7B5F44",
"7  c #8B7256",
"8  c #C7B99C",
"9  c #B7A78A",
"0  c #83684D",
"q  c #7A5E43",
"w  c #DBD1B4",
"e  c #8B7357",
"r  c #C6B89C",
"t  c #E7E0C3",
"y  c #B7A68A",
"u  c #83694E",
"i  c #E9E2C5",
"p  c #A59276",
"a  c #7D6045",
"s  c #7C5F44",
"d  c #8C7458",
"f  c #C5B89B",
"g  c #B7A689",
"h  c #846A4E",
"j  c #7A5D42",
"k  c #7C6044",
"l  c #D3C8AB",
"z  c #A08B6F",
"x  c #7E6145",
"c  c #846547",
"v  c #816345",
"b  c #DBD1B5",
"n  c #AE9C80",
"m  c #856B4F",
"M  c #795D42",
"N  c #7D6044",
"B  c #836446",
"V  c #D3C7AA",
"C  c #988266",
"Z  c #856647",
"A  c #876748",
"S  c #866648",
"D  c #816346",
"F  c #E8E1C4",
"G  c #A79478",
"H  c #836547",
"J  c #D4C8AC",
"K  c #988165",
"L  c #7C6045",
"P  c #826346",
"I  c #DDD3B6",
"U  c #A79377",
"Y  c #D5CAAD",
"T  c #978064",
"R  c #DED4B7",
"E  c #A69377",
"W  c #D4C9AC",
"Q  c #967F63",
"!  c #7C6146",
"~  c #C8BB9E",
"^  c #A69276",
"/  c #7B5E44",
"(  c #836447",
")  c #91795D",
"_  c #7D6146",
"`  c #7F6245",
"'  c #866748",
"]  c #876E52",
"[  c #9A8468",
"{  c #886849",
"}  c #89694A",
"|  c #8D6D4E",
" . c #8B6A4C",
".. c #7F6145",
"X. c #8C6C4D",
"o. c #8E6D4F",
"O. c #917052",
"+. c #906F51",
"@. c #8B6B4C",
"#. c #866647",
"$. c #8D6C4E",
"%. c #8A6A4B",
"&. c #8F6E50",
"*. c #8A694B",
"=. c #8F6F50",
"-. c #89684A",
";. c #916F52",
":. c #8E6E4F",
">. c #8C6B4D",
",. c #886749",
"<. c #907051",
"1. c white",
/* pixels */
"                                                                                                                                ",
". . . . . . . . . . . . . . . . . . . . . . . . . . . . . . . . . . . . . . . . . . . . . . . . . . . . . . . . . . . . . . . . ",
"X X X X X X X X X X X X X X X X X X X X X X X X X X X X X X X X X X X X X X X X X X X X X X X X X X X X X X X X X X X X X X X X ",
"X X X X X X X X X X X X X X X X X X X X X X X X X X X X X X X X X X X X X X X X X X X X X X X X X X X X X X X X X X X X X X X X ",
"X X X X X X X X X X X X X X X X X X X X X X X X X X X X X X X X X X X X X X X X X X X X X X X X X X X X X X X X X X X X X X X X ",
"X X X X X X X X X X X X X X X X X X X X X X X X X X X X X X X X X X X X X X X X X X X X X X X X X X X X X X X X X X X X X X X X ",
"X X X X X X X X X X X X X X X X X X X X X X X X X X X X X X X X X X X X X X X X X X X X X X X X X X X X X X X X X X X X X X X X ",
"X X X X X X X X X X X X X X X X X X X X X X X X X X X X X X X X X X X X X X X X X X X X X X X X X X X X X X X X X X X X X X X X ",
"X X X X X X X X X X X X X X X X X X X X X X X X X X X X X X X X X X X X X X X X X X X X X X X X X X X X X X X X X X X X X X X X ",
"X X X X X X X X X X X X X X X X X X X X X X X X X X X X X X X X X X X X X X X X X X X X X X X X X X X X X X X X X X X X X X X X ",
"X X X X X X X X X X o O X X X X X X X X X X X X X X X X X X X + + X X X X X X X X X X X X X X X X X X X O o X X X X X X X X X X ",
"X X X X X X X X @ # $ % & X X X X X X X X X X X X X X X X X * = = * X X X X X X X X X X X X X X X X X & % $ # @ X X X X X X X X ",
"X X X X X X X @ - ; : > , & X X X X X X X X X X X X X X @ * < 1 1 < * @ X X X X X X X X X X X X X X & , > : ; - @ X X X X X X X ",
"X X X X X X 2 3 4 5 6 6 7 8 O X X X X X X X X X X X X @ * 9 0 q q 0 9 * @ X X X X X X X X X X X X O 8 7 6 6 5 4 3 2 X X X X X X ",
"X X X X X 2 w 4 5 q 6 6 q e r O t X X X X X X X X X @ * y u q 6 6 q u y * @ X X X X X X X X X t O r e q 6 6 q 5 4 w 2 X X X X X ",
"X X X X i w p 5 q 6 a s 6 q d f O t X X X X X X X 2 * g h j 6 k k 6 j h g * 2 X X X X X X X t O f d q 6 s a 6 q 5 p w i X X X X ",
"X X X @ l z : q 6 x c v s 6 j d f O X X X X X X 2 b n m M 6 N B B N 6 M m n b 2 X X X X X X O f d j 6 s v c x 6 q : z l @ X X X ",
"X X @ V C 6 q 6 x Z A S D s 6 j d r O X X X X F - G 5 j 6 N H A A H N 6 j 5 G - F X X X X O r d j 6 s D S A Z x 6 q 6 C V @ X X ",
"X X J K L 6 6 x Z A A A S P s 6 q e 8 & X X @ I U : q 6 N H A A A A H N 6 q : U I @ X X & 8 e q 6 s P S A A A Z x 6 6 L K J X X ",
"X Y T L 6 6 x Z A A A A A S D s 6 q 7 , & X R E : q 6 N H A A A A A A H N 6 q : E R X & , 7 q 6 s D S A A A A A Z x 6 6 L T Y X ",
"W Q ! 6 6 x Z A A A A A A A S v s 6 6 > ~ - ^ : / 6 N ( A A A A A A A A ( N 6 / : ^ - ~ > 6 6 s v S A A A A A A A Z x 6 6 ! Q W ",
") _ 6 6 ` Z A A A A A A A A A ' v s 6 6 ] [ : 6 6 x c A A A A A A A A A A c x 6 6 : [ ] 6 6 s v ' A A A A A A A A A Z ` 6 6 _ ) ",
"L 6 6 ` Z A A A A A A A A A A A A v s 6 6 L 6 6 x c A A A A A A A A A A A A c x 6 6 L 6 6 s v A A A A A A A A A A A A Z ` 6 6 L ",
"6 6 ` S A A A A A A A A A A A A A A v s 6 6 6 x c A A A A A A A A A A A A A A c x 6 6 6 s v A A A A A A A A A A A A A A S ` 6 6 ",
"6 ` S A A A A A A A { A A A A A A A A v s 6 x c A A A A A A A { { A A A A A A A c x 6 s v A A A A A A A A { A A A A A A A S ` 6 ",
"` Z A A A A A A A } |  .A A A A A A A A v ..c A A A A A A A { X.X.{ A A A A A A A c ..v A A A A A A A A  .| } A A A A A A A Z ` ",
"S A A A A A A A } o.O.+.@.A A A A A A A A #.A A A A A A A { $.O.O.$.{ A A A A A A A #.A A A A A A A A @.+.O.o.} A A A A A A A S ",
"A A A A A A A } o.O.O.O.+.@.A A A A A A A A A A A A A A { $.O.O.O.O.$.{ A A A A A A A A A A A A A A @.+.O.O.O.o.} A A A A A A A ",
"A A A A A A } o.O.O.O.O.O.+.@.A A A A A A A A A A A A { $.O.O.O.O.O.O.$.{ A A A A A A A A A A A A @.+.O.O.O.O.O.o.} A A A A A A ",
"A A A A A } o.O.O.O.O.O.O.O.+.@.A A A A A A A A A A { $.O.O.O.O.O.O.O.O.$.{ A A A A A A A A A A @.+.O.O.O.O.O.O.O.o.} A A A A A ",
"A A A A %.&.O.O.O.O.O.O.O.O.O.+.@.A A A A A A A A } o.O.O.O.O.O.O.O.O.O.O.o.} A A A A A A A A @.+.O.O.O.O.O.O.O.O.O.&.%.A A A A ",
"A A A *.=.O.O.O.O.O.O.O.O.O.O.O.+. .A A A A A A } o.O.O.O.O.O.O.O.O.O.O.O.O.o.} A A A A A A  .+.O.O.O.O.O.O.O.O.O.O.O.=.*.A A A ",
"A A *.+.O.O.O.O.O.+.+.+.+.+.+.O.O.+. .A A A A } o.O.O.O.O.O.O.O.O.O.O.O.O.O.O.o.} A A A A  .+.O.O.O.O.O.O.O.O.O.O.O.O.O.+.*.A A ",
"A *.+.O.O.O.O.O.o.@.} } } }  .o.O.O.+. .A A } o.O.O.O.O.O.O.O.O.O.O.O.O.O.O.O.O.o.} A A  .+.O.O.O.O.O.O.O.O.O.O.O.O.O.O.O.+.*.A ",
"*.+.O.O.O.O.O.$.{ A A A A A A { $.O.O.+. .} o.O.O.O.O.O.O.O.O.O.O.O.O.O.O.O.O.O.O.o.}  .+.O.O.O.O.O.O.O.O.O.O.O.O.O.O.O.O.O.+.*.",
"+.O.O.O.O.O.&.-.A A A A A A A A } &.O.O.+.&.O.O.O.O.O.O.O.O.O.O.O.O.O.O.O.O.O.O.O.O.&.+.O.O.O.O.O.O.O.O.O.O.;.:.o.o.o.+.O.O.O.+.",
"O.O.O.O.O.+. .A A A A A A A A A A  .+.O.O.O.O.O.O.&.$.$.$.:.O.O.O.O.O.O.O.O.O.O.O.O.O.O.O.O.O.O.O.O.O.O.O.O.$.{ A A A $.O.O.O.O.",
"O.O.O.O.O.o.-.A A A A A A A A A A { &.O.O.O.O.O.&.} A A A -.:.O.O.O.O.O.O.O.O.O.O.O.O.O.O.O.O.O.O.O.O.O.O.&.-.A A A A { o.O.O.O.",
"O.O.O.O.O.$.{ A A A A A A A A A A A o.O.O.O.O.;.>.A A A A A %.+.O.O.O.O.O.O.O.O.O.O.O.O.O.O.O.O.O.O.O.O.O.o.A A A A A A >.+.O.O.",
"O.O.O.O.O.$.{ A A A A A A A A A A A o.O.O.O.O.+. .A A A A A A +.O.O.O.O.O.O.O.O.O.O.O.O.O.O.O.O.O.O.O.O.O.o.A A A A A A >.O.O.O.",
"O.O.O.O.O.o.{ A A A A A A A A A A A :.O.O.O.O.+. .A A A A A { +.O.O.O.O.O.O.O.O.O.O.O.O.O.O.O.O.O.O.O.O.O.+.} A A A A { o.O.O.O.",
"O.O.O.O.O.&.} A A A A A A A A A A } &.O.O.O.O.O.$.A A A A A >.O.O.O.O.O.O.O.O.O.O.O.O.O.O.O.O.O.O.O.O.O.O.O.| { A A { X.O.O.O.O.",
"O.O.O.O.O.O.X.A A A A A A A A A A $.O.O.O.O.O.O.+.X.{ ,.,.>.+.O.O.O.O.O.O.O.O.O.O.O.O.O.O.O.O.O.O.O.O.O.O.O.O.+.o.| &.O.O.O.O.O.",
"O.O.O.O.O.O.+.%.A A A A A A A A  .+.O.O.O.+.+.+.+.O.&.o.&.+.O.O.O.O.O.O.O.O.O.O.O.O.O.O.O.O.O.O.O.O.O.O.O.O.O.O.O.O.O.O.O.O.O.O.",
"O.O.O.O.O.O.O.+. .{ A A A A { @.+.O.O.O.X.*.} }  .&.O.O.O.O.O.O.O.O.O.O.O.O.O.O.O.O.O.O.O.O.O.O.O.O.O.O.O.O.O.O.O.O.O.O.O.O.O.O.",
"O.O.O.O.O.O.O.O.+.o.>.@.@.>.o.+.O.O.O.o.{ A A A A  .+.O.O.O.O.O.O.O.O.O.O.O.O.O.O.O.O.O.O.O.O.O.O.O.O.O.O.O.O.O.O.O.O.O.O.O.O.O.",
"O.O.O.O.O.O.O.O.O.O.O.O.O.O.O.O.O.O.O.>.A A A A A { o.O.O.O.O.O.O.O.O.O.O.O.O.O.O.O.O.O.O.O.O.O.O.O.O.O.O.O.O.O.O.O.O.O.O.O.O.O.",
"O.O.O.O.O.O.O.O.O.O.O.O.O.O.O.O.O.O.O. .A A A A A ,.$.O.O.O.O.O.O.O.O.O.O.O.O.O.O.O.O.O.O.O.O.O.O.O.O.O.O.O.O.O.O.O.O.O.O.O.O.O.",
"O.O.O.O.O.O.O.O.O.O.O.O.O.O.O.O.O.O.O.$.A A A A A -.:.O.O.O.O.O.O.O.O.O.O.O.O.O.O.O.O.O.O.O.O.O.O.O.O.O.O.O.O.O.O.O.O.O.O.O.O.O.",
"O.O.O.O.O.O.O.O.O.O.O.O.O.O.O.O.O.O.O.+. .A A A { $.<.O.O.O.O.O.O.O.O.O.O.O.O.O.O.O.O.O.O.O.O.O.O.O.O.O.O.O.O.O.O.O.O.O.O.O.O.O.",
"O.O.O.O.O.O.O.O.O.O.O.O.O.O.O.O.O.O.O.O.+.>. . .| O.O.O.O.O.O.O.O.O.O.O.O.O.O.O.O.O.O.:.@.@.>.&.O.O.O.O.O.O.O.O.O.O.O.O.O.O.O.O.",
"O.O.O.O.O.O.O.O.O.O.O.O.O.O.O.O.O.O.O.O.O.O.+.+.O.O.O.O.O.O.O.O.O.O.O.O.O.O.O.O.O.O.&.-.A A A %.=.O.O.O.O.O.O.O.O.O.O.O.O.O.O.O.",
"O.O.O.O.O.O.O.O.O.O.O.O.O.O.O.O.O.O.O.O.O.O.O.O.O.O.O.O.O.O.O.O.O.O.O.O.O.O.O.O.O.O.%.A A A A A @.+.O.O.O.O.O.O.O.O.O.O.O.O.O.O.",
"O.O.O.O.O.O.O.O.O.O.O.O.O.O.O.O.O.O.O.O.O.O.O.O.O.O.O.O.O.O.O.O.O.O.O.O.O.O.O.O.O.O.{ A A A A A *.&.O.O.O.O.O.O.O.O.O.O.O.O.O.O.",
"O.O.O.O.O.O.O.O.O.O.O.O.O.O.O.O.O.O.O.O.O.O.O.O.O.O.O.O.O.O.O.O.O.O.O.O.O.O.O.O.O.O.{ A A A A A %.+.O.O.O.O.O.O.O.O.O.O.O.O.O.O.",
"O.O.O.O.O.O.O.O.O.O.O.O.O.O.O.O.O.O.O.O.O.O.O.O.O.O.O.O.O.O.O.O.O.O.O.O.O.O.O.O.O.O.@.A A A A A X.O.O.O.O.O.O.O.O.O.O.O.O.O.O.O.",
"O.O.O.O.O.O.O.O.O.O.O.O.O.O.O.O.O.O.O.O.O.O.O.O.O.O.O.O.O.O.O.O.O.O.O.O.O.O.O.O.O.O.&.%.{ { -.>.+.O.O.O.O.O.O.O.O.O.O.O.O.O.O.O.",
"O.O.O.O.O.O.O.O.O.O.O.O.O.O.O.O.O.O.O.O.O.O.O.O.O.O.O.O.O.O.O.O.O.O.O.O.O.O.O.O.O.O.O.O.:.o.&.O.O.O.O.O.O.O.O.O.O.O.O.O.O.O.O.O.",
"O.O.O.O.O.O.O.O.O.O.O.O.O.O.O.O.O.O.O.O.O.O.O.O.O.O.O.O.O.O.O.O.O.O.O.O.O.O.O.O.O.O.O.O.O.O.O.O.O.O.O.O.O.O.O.O.O.O.O.O.O.O.O.O.",
"O.O.O.O.O.O.O.O.O.O.O.O.O.O.O.O.O.O.O.O.O.O.O.O.O.O.O.O.O.O.O.O.O.O.O.O.O.O.O.O.O.O.O.O.O.O.O.O.O.O.O.O.O.O.O.O.O.O.O.O.O.O.O.O.",
"O.O.O.O.O.O.O.O.O.O.O.O.O.O.O.O.O.O.O.O.O.O.O.O.O.O.O.O.O.O.O.O.O.O.O.O.O.O.O.O.O.O.O.O.O.O.O.O.O.O.O.O.O.O.O.O.O.O.O.O.O.O.O.O.",
"O.O.O.O.O.O.O.O.O.O.O.O.O.O.O.O.O.O.O.O.O.O.O.O.O.O.O.O.O.O.O.O.O.O.O.O.O.O.O.O.O.O.O.O.O.O.O.O.O.O.O.O.O.O.O.O.O.O.O.O.O.O.O.O.",
"O.O.O.O.O.O.O.O.O.O.O.O.O.O.O.O.O.O.O.O.O.O.O.O.O.O.O.O.O.O.O.O.O.O.O.O.O.O.O.O.O.O.O.O.O.O.O.O.O.O.O.O.O.O.O.O.O.O.O.O.O.O.O.O.",
"O.O.O.O.O.O.O.O.O.O.O.O.O.O.O.O.O.O.O.O.O.O.O.O.O.O.O.O.O.O.O.O.O.O.O.O.O.O.O.O.O.O.O.O.O.O.O.O.O.O.O.O.O.O.O.O.O.O.O.O.O.O.O.O."
};
