/* XPM */
static char *f7db76e47c0a4560c8af7ab9e83fef75JdelvdEgcba8KWbz[] = {
/* columns rows colors chars-per-pixel */
"64 64 27 1 ",
"  c black",
". c #193F59",
"X c #1C4765",
"o c #22577D",
"O c #255F89",
"+ c #286795",
"@ c #2B6FA1",
"# c #2E77AD",
"$ c #317FB9",
"% c #3487C5",
"& c #3C8FCC",
"* c #4896CF",
"= c #549DD2",
"- c #60A4D5",
"; c #6CABD8",
": c #78B2DB",
"> c #959595",
", c #84B9DE",
"< c #90C0E1",
"1 c #9CC7E4",
"2 c #A8CEE7",
"3 c #B4D5EA",
"4 c #C0DCED",
"5 c #CCE3F0",
"6 c #D8E9F3",
"7 c #E4F0F7",
"8 c white",
/* pixels */
">>>>>>>>>>>>>>>>>>>>>>>>>>>>>>>>>>>>>>>>>>>>>>>>>>>>>>>>>>>>>>>>",
">>>>>>>>>>>>>>>>>>>>>>>>>>>>>>>>>>>>>>>>>>>>>>>>>>>>>>>>>>>>>>>>",
">>>>>>>>>>>>>>>>>>>>>>>>>>>>>>>>>>>>>>>>>>>>>>>>>>>>>>>>>>>>>>>>",
">>>>>>>>>>>>>>>>>>>>>>>>>>>>>>>>>>>>>>>>>>>>>>>>>>>>>>>>>>>>>>>>",
">>>>>>>>>>>>>>>>>>>>>>>>>>>>>>>>>>>>>>>>>>>>>>>>>>>>>>>>>>>>>>>>",
">>>>>>>>>>>>>>>>>>>>>>>>>>>>>>>>>>>>>>>>>>>>>>>>>>>>>>>>>>>>>>>>",
">>>>>>>>>>>>>>>>>>>>>>>>>>>>>>>>>>>>>>>>>>>>>>>>>>>>>>>>>>>>>>>>",
">>>>>>>>>>>>>>>>>>>>>>>>>>>>>>>>>>>>>>>>>>>>>>>>>>>>>>>>>>>>>>>>",
">>>>>>>>,,,,,,,,,,,,,,,,,,,,,,,,,,,,,,,,,,,,,,,,,,,,,,,,>>>>>>>>",
">>>>>>>>,,,,,,,,,,,,,<<<,,,,,,,,,,,,,,,,,,,,,,,,,,,,,,,,>>>>>>>>",
">>>>>>>>,,,,,,,,,,,,,<<<,,,,,,,,,,,,,,,,,,,,,,,,,,,,,,,,>>>>>>>>",
">>>>>>>>,,,,,,,,,,,<<221,,,,,,,,,,,,,,,,,,,,,,,,,,,,,,,,>>>>>>>>",
">>>>>>>>,,,,,,,,,,,<<221,,,,,,,,,,,,,,,,,,,,,,,,,,,,,,,,>>>>>>>>",
">>>>>>>>,,,,,,,,,<<2222<,,,,,,,,,,,,,,,,,,,,,,,,,,,,,,,,>>>>>>>>",
">>>>>>>>,,,,,,,,,<<2222<,,,,,,,,,,,,,,,,,,,,,,,,,,,,,,,,>>>>>>>>",
">>>>>>>>,,,,,,,,,2233<<,,,,,,,,,,,,,,,,,,,,,,,,,,<<<<,,,>>>>>>>>",
">>>>>>>>,,,,,,,,,2233<<,,,,,,,,,,,,,,,,,,,,,,,,,,<<<<,,,>>>>>>>>",
">>>>>>>>,,,,,,,335511,,,,,,,,,,,,,,,,,,,,,,,,,,,,<<,,,,,>>>>>>>>",
">>>>>>>>,,,,,,,335511,,,,,,,,,,,,,,,,,,,,,,,,,,,,<<,,,,,>>>>>>>>",
">>>>>>>>,,,,,668844,,,,,,,,,,,,,,,,,,,,,,,,,,,,11,,,,,,,>>>>>>>>",
">>>>>>>>,,,,,668844,,,,,,,,,,,,,,,,,,,,,,,,,,,,11,,,,,,,>>>>>>>>",
">>>>>>>>,,,118888<<,,,,,,,,,,,,,,,,,,,,,,,,,,<<,,,,,,,,,>>>>>>>>",
">>>>>>>>,,,118888<<,,,,,,,,,,,,,,,,,,,,,,,,,,<<,,,,,,,,,>>>>>>>>",
">>>>>>>>,,,115533,,,,,,,,,,,,,,,,,,,,,,,,,,,,11,,,,,,,,,>>>>>>>>",
">>>>>>>>,,,,,,,,,,,,,,,,,,,,,,,,,,,,,,,,,,,44,,,,,,,,,,,>>>>>>>>",
">>>>>>>>,,,,,,,,,,,,,,,,,,,,,,,,,,,,,,,,,,,44,,,,,,,,,,,>>>>>>>>",
">>>>>>>>,,,,,,,,,,,,,,,,,,11,,,,,,,,,,,,,77,,,,,,,,,,,,,>>>>    ",
">>>>>>>>,,,,,,,,,,,,,,,,,,11,,,,,,,,,,,,,77,,,,,,,,,,,,,>>>>    ",
">>>>>>>>,,,,,,,,,,,,,,,,11,,,,,,,,,,,,,,,11,,,,,,,,,,,,,>>>>    ",
">>>>>>>>,,,,,,,,,,,,,,,,11,,,,,,,,,,,,,,,11,,,,,,,,,,,,,>>>>    ",
">>>>>>>>,,,,,,,,,,,,,,,<<<,,,,,,,,,,,,,,,,,,,,,,,,,,,,,,>>>>    ",
">>>>>>>>,,,,,,,,,,,,,,,<<<,,,,,,,,,,,,,,,,,,,,,,,,,,,,,,>>>>    ",
">>>>>>>>,,,,,,,,,,,,,<<<,,,,,,,,,,,,,,,,,,,,,,,,,,,,,,,,>>>>    ",
">>>>>>>>,,,,,,,,,,,,,<<<,,,,,,,,,,,,,,,,,,,,,,,,,,,,,,,,>>>>    ",
">>>>>>>>,,,,,,,,,,,22<<,,,,,,,,,,,,,,,,,,,,,,,,,,,,,,,,,>>>>    ",
">>>>>>>>,,,,,,,,,,,22<<,,,,,,,,,,,,,,,,,,,,,,,,,,,,,,,,,>>>>    ",
">>>>>>>>,,,,,,,,,55<<,,,,,,,,,,,,,,,,,,,,,,,,,,,,,,,,,,,>>>>    ",
">>>>>>>>,,,,,,,,,55<<,,,,,,,,,,,,,,,,,,,,,,,,,,,,,,,,,,,>>>>    ",
">>>>>>>>,,,,,,,<<11,,,,,,,,,,,,,,,,,,,,,,,,,,,,,,,,,,,,,>>>>    ",
">>>>>>>>,,,,,,,<<11,,,,,,,,,,,,,,,,,,,,,,,,,,,,,,,,,,,,,>>>>    ",
">>>>>>>>,,,,,,,,,,,,,,,,,,,,,,,,,,,,,,,,,,,,,,,,,,,,,,,,>>>>>>>>",
">>>>>>>>,,,,,,,,,,,,,,,,,,,,,,,,,,,,,,,,,,,,,,,,,,,,,:::>>>>>>>>",
">>>>>>>>,,,,,,,,,,,,,,,,,,,,,,,,,,,,,,,,,,,,,,,,,,,,,:::>>>>>>>>",
">>>>>>>>,,,,,,,,,,,,,,,,,,,,,,,,,,,,,,,,,,,,,,,,,,,::--;>>>>>>>>",
">>>>>>>>,,,,,,,,,,,,,,,,,,,,,,,,,,,,,,,,,,,,,,,,,,,::--;>>>>>>>>",
">>>>>>>>,,,,,,,,,,,,,,,,,,,,,,,,,,,,,,,,,,,,,,,,,,,**##=>>>>>>>>",
">>>>>>>>,,,,,,,,,,,,,,,,,,,,,,,,,,,,,,,,,,,,,,,,,,,**##=>>>>>>>>",
">>>>>>>>,,,,,,,,,,,,,,,,,,,,,,,,,,,,,,,,,,,,,,,,,==$$OO$>>>>>>>>",
">>>>>>>>,,,,,,,,,,,,,,,,,,,,,,,,,,,,,,,,,,,,,,,,,==$$OO$>>>>>>>>",
">>>>>>>>,,,,,,,,,,,,,,,,,,,,,,,,,,,,,,,,,,,,,,,&&++++oo%>>>>>>>>",
">>>>>>>>,,,,,,,,,,,,,,,,,,,,,,,,,,,,,,,,,,,,,,,&&++++oo%>>>>>>>>",
">>>>>>>>,,,,,,,,,,,,,,,,,,,,,,,,,,,,,,,,,,,,,&&XX@@XX..;>>>>>>>>",
">>>>>>>>,,,,,,,,,,,,,,,,,,,,,,,,,,,,,,,,,,,,,&&XX@@XX..;>>>>>>>>",
">>>>>>>>,,,,,,,,,,,,,,,,,,,,,,,,,,,,,,,,,,,;;##OO**ooXX=>>>>>>>>",
">>>>>>>>,,,,,,,,,,,,,,,,,,,,,,,,,,,,,,,,,,,;;##OO**ooXX=>>>>>>>>",
">>>>>>>>,,,,,,,,,,,,,,,,,,,,,,,,,,,,,,,,,::------;;**%%=>>>>>>>>",
">>>>>>>>>>>>>>>>>>>>>>>>>>>>>>>>>>>>>>>>>>>>>>>>>>>>>>>>>>>>>>>>",
">>>>>>>>>>>>>>>>>>>>>>>>>>>>>>>>>>>>>>>>>>>>>>>>>>>>>>>>>>>>>>>>",
">>>>>>>>>>>>>>>>>>>>>>>>>>>>>>>>>>>>>>>>>>>>>>>>>>>>>>>>>>>>>>>>",
">>>>>>>>>>>>>>>>>>>>>>>>>>>>>>>>>>>>>>>>>>>>>>>>>>>>>>>>>>>>>>>>",
">>>>>>>>>>>>>>>>>>>>>>>>>>>>>>>>>>>>>>>>>>>>>>>>>>>>>>>>>>>>>>>>",
">>>>>>>>>>>>>>>>>>>>>>>>>>>>>>>>>>>>>>>>>>>>>>>>>>>>>>>>>>>>>>>>",
">>>>>>>>>>>>>>>>>>>>>>>>>>>>>>>>>>>>>>>>>>>>>>>>>>>>>>>>>>>>>>>>",
">>>>>>>>>>>>>>>>>>>>>>>>>>>>>>>>>>>>>>>>>>>>>>>>>>>>>>>>>>>>>>>>"
};
