/* XPM */
static char *f3aea96d518248d885b2e99ab049e196yuN2PC3QQUDUhW0R[] = {
/* columns rows colors chars-per-pixel */
"64 64 118 2 ",
"   c #93DB24",
".  c #90D623",
"X  c #80BE1F",
"o  c #82BC20",
"O  c #81BD1F",
"+  c #81BC20",
"@  c #85B822",
"#  c #9E9E32",
"$  c #8FAD28",
"%  c #81BD20",
"&  c #83BB21",
"*  c #97A52D",
"=  c #7FBF1F",
"-  c #86B823",
";  c #A49836",
":  c #B98243",
">  c #B2883E",
",  c #91AC29",
"<  c #9AA32E",
"1  c #B78441",
"2  c #7FBF1E",
"3  c #A39835",
"4  c #BB8044",
"5  c #B2893E",
"6  c #91AB29",
"7  c #9AA22F",
"8  c #86B723",
"9  c #B1893E",
"0  c #92AB29",
"q  c #B68541",
"w  c #BC7F44",
"e  c #BD8349",
"r  c #BB8145",
"t  c #B18A3D",
"y  c #92AB2A",
"u  c #80BD1F",
"i  c #83BB20",
"p  c #BC7F45",
"a  c #BC8247",
"s  c #8AB326",
"d  c #A69537",
"f  c #BE844B",
"g  c #C28B56",
"h  c #C08851",
"j  c #BB8146",
"k  c #9F9D32",
"l  c #B68540",
"z  c #BC8248",
"x  c #C18A54",
"c  c #7FBE1F",
"v  c #8AB226",
"b  c #AA913A",
"n  c #C38C58",
"m  c #C58F5C",
"M  c #C48E5B",
"N  c #A29935",
"B  c #C28A55",
"V  c #8AB325",
"C  c #AB903A",
"Z  c #BA8044",
"A  c #89B325",
"S  c #85B922",
"D  c #A39935",
"F  c #AB8F3B",
"G  c #BA8144",
"H  c #90AC29",
"J  c #86B822",
"K  c #C28A54",
"L  c #AE8C3C",
"P  c #BA8143",
"I  c #BF854D",
"U  c #C48D59",
"Y  c #C08850",
"T  c #B4863F",
"R  c #AA9239",
"E  c #BE844A",
"W  c #C38C57",
"Q  c #BB8045",
"!  c #BE854D",
"~  c #C58F5B",
"^  c #C08750",
"/  c #C48E5A",
"(  c #BD844A",
")  c #C5905E",
"_  c #C5905D",
"`  c #BF864E",
"'  c #C6915F",
"]  c #C89565",
"[  c #C69261",
"{  c #BE854C",
"}  c #C79463",
"|  c #C89566",
" . c #C99869",
".. c #C89768",
"X. c #C69362",
"o. c #C38D59",
"O. c #C79464",
"+. c #C69260",
"@. c #C89667",
"#. c #C89767",
"$. c #C69262",
"%. c #C58F5D",
"&. c #C6915E",
"*. c #C69160",
"=. c #C89666",
"-. c #C79564",
";. c #C69363",
":. c #C79361",
">. c #C79362",
",. c #C79363",
"<. c #C99768",
"1. c #C89564",
"2. c #C5905F",
"3. c #C79666",
"4. c #C5915F",
"5. c #C69361",
"6. c #C79566",
"7. c white",
/* pixels */
"                                                                                                                                ",
". . . . . . . . . . . . . . . . . . . . . . . . . . . . . . . . . . . . . . . . . . . . . . . . . . . . . . . . . . . . . . . . ",
"X X X X X X X X X X X X X X X X X X X X X X X X X X X X X X X X X X X X X X X X X X X X X X X X X X X X X X X X X X X X X X X X ",
"X X X X X X X X X X X X X X X X X X X X X X X X X X X X X X X X X X X X X X X X X X X X X X X X X X X X X X X X X X X X X X X X ",
"X X X X X X X X X X X X X X X X X X X X X X X X X X X X X X X X X X X X X X X X X X X X X X X X X X X X X X X X X X X X X X X X ",
"X X X X X X X X X X X X X X X X X X X X X X X X X X X X X X X X X X X X X X X X X X X X X X X X X X X X X X X X X X X X X X X X ",
"X X X X X X X X X X X X X X X X X X X X X X X X X X X X X X X X X X X X X X X X X X X X X X X X X X X X X X X X X X X X X X X X ",
"X X X X X X X X X X X X X X X X X X X X X X X X X X X X X X X X X X X X X X X X X X X X X X X X X X X X X X X X X X X X X X X X ",
"X X X X X X X X X X X X X X X X X X X X X X X X X X X X X X X X X X X X X X X X X X X X X X X X X X X X X X X X X X X X X X X X ",
"X X X X X X X X X X X X X X X X X X X X X X X X X X X X X X X X X X X X X X X X X X X X X X X X X X X X X X X X X X X X X X X X ",
"X X X X X X X X X X o O X X X X X X X X X X X X X X X X X X X + + X X X X X X X X X X X X X X X X X X X O o X X X X X X X X X X ",
"X X X X X X X X X @ # $ % X X X X X X X X X X X X X X X X X & * * & X X X X X X X X X X X X X X X X X % $ # @ X X X X X X X X X ",
"X X X X X X X = - ; : > , O X X X X X X X X X X X X X X X & < 1 1 < & X X X X X X X X X X X X X X X O , > : ; - = X X X X X X X ",
"X X X X X X 2 - 3 : 4 4 5 6 O X X X X X X X X X X X X = & 7 1 4 4 1 7 & = X X X X X X X X X X X X O 6 5 4 4 : 3 - 2 X X X X X X ",
"X X X X X 2 8 3 : 4 4 4 4 9 0 O X X X X X X X X X X = & 7 q w 4 4 w q 7 & = X X X X X X X X X X O 0 9 4 4 4 4 : 3 8 2 X X X X X ",
"X X X X 2 8 3 : 4 4 e r 4 w t y u X X X X X X X X = i 7 q p 4 a a 4 p q 7 i = X X X X X X X X u y t w 4 r e 4 4 : 3 8 2 X X X X ",
"X X X = s d : w 4 f g h j 4 w t y O X X X X X X 2 8 k l p 4 z x x z 4 p l k 8 2 X X X X X X O y t w 4 j h g f 4 w : d s = X X X ",
"X X c v b 4 4 4 f n m M h r 4 w t 0 O X X X X = - N : p 4 z B m m B z 4 p : N - = X X X X O 0 t w 4 r h M m n f 4 4 4 b v c X X ",
"X X V C Z 4 4 f n m m m M h r 4 w 9 6 O X X X @ N : w 4 z B m m m m B z 4 w : N @ X X X O 6 9 w 4 r h M m m m n f 4 4 Z C V X X ",
"X A C Z 4 4 f n m m m m m M h j 4 4 5 , % X S D : 4 4 z B m m m m m m B z 4 4 : D S X % , 5 4 4 j h M m m m m m n f 4 4 Z C A X ",
"A F G 4 4 f n m m m m m m m M h j 4 4 > H J D : 4 4 z K m m m m m m m m K z 4 4 : D J H > 4 4 j h M m m m m m m m n f 4 4 G F A ",
"L P 4 4 I U m m m m m m m m m M Y j 4 4 T R : 4 4 E W m m m m m m m m m m W E 4 4 : R T 4 4 j Y M m m m m m m m m m U I 4 4 P L ",
"4 4 Q ! U m m m m m m m m m m m ~ ^ j 4 4 G 4 4 E W m m m m m m m m m m m m W E 4 4 G 4 4 j ^ ~ m m m m m m m m m m m U ! Q 4 4 ",
"4 Q ! / m m m m m m m m m m m m m ~ ^ j 4 4 4 ( W m m m m m m m m m m m m m m W ( 4 4 4 j ^ ~ m m m m m m m m m m m m m / ! Q 4 ",
"4 ! / m m m m m m m ) m m m m m m m ~ ^ j 4 E W m m m m m m m _ _ m m m m m m m W E 4 j ^ ~ m m m m m m m ) m m m m m m m / ! 4 ",
"` U m m m m m m m ' ] [ m m m m m m m ~ h { W m m m m m m m _ } } _ m m m m m m m W { h ~ m m m m m m m [ ] ' m m m m m m m U ` ",
"/ m m m m m m m ' |  ...X.m m m m m m m ~ o.m m m m m m m _ }  . .} _ m m m m m m m o.~ m m m m m m m X... .| ' m m m m m m m / ",
"m m m m m m m ' |  . . ...X.m m m m m m m m m m m m m m _ O. . . . .O._ m m m m m m m m m m m m m m X... . . .| ' m m m m m m m ",
"m m m m m m ' |  . . . . ...X.m m m m m m m m m m m m _ O. . . . . . .O._ m m m m m m m m m m m m X... . . . . .| ' m m m m m m ",
"m m m m m ' |  . . . . . . ...X.m m m m m m m m m m _ O. . . . . . . . .O._ m m m m m m m m m m X... . . . . . . .| ' m m m m m ",
"m m m m +.@. . . . . . . . . ...X.m m m m m m m m ' ]  . . . . . . . . . .] ' m m m m m m m m X... . . . . . . . . .@.+.m m m m ",
"m m m ' #. . . . . . . . . . . ...$.%.m m m m m ' |  . . . . . . . . . . . .| ' m m m m m %.$... . . . . . . . . . . .#.' m m m ",
"m m ' #. . . . . . . . . . . . . ...[ %.m m m &.|  . . . . . . . . . . . . . .| &.m m m %.[ .. . . . . . . . . . . . . .#.' m m ",
"m ' #. . . . . . . . . . . . . . . ...[ %.m &.|  . . . . . . . . . . . . . . . .| &.m %.[ .. . . . . . . . . . . . . . . .#.' m ",
"*.#. . . . . . . . . . . . . . . . . ...[ ' |  . . . . . . . . . . . . . . . . . .| ' [ .. . . . . . . . . . . . . . . . . .#.*.",
"#. . . . . . . . . . . . . . . . . . . ...=. . . . . . . . . . . . . . . . . . . . .=... . . . . . . . . . . . . . . . . . . .#.",
" . . . . . . . . . . . . . . . . . . . . . . . . . . . . . . . . . . . . . . . . . . . . . . . . . . . . . . . . . . . . . . . .",
" . . . . . . . . . . . . . . . . . . . . . . . . . . . . . . . . . . . . . . . . . . . . . . . . . . . . . . . . . . . . . . . .",
" . . . . . . . . . .] #. . . . . . . . . . . . . . . . . . . .@.@. . . . . . . . . . . . . . . . . . . .#.]  . . . . . . . . . .",
" . . . . . . . . .O.) +.#. . . . . . . . . . . . . . . . . .=.' ' =. . . . . . . . . . . . . . . . . .#.+.) O. . . . . . . . . .",
" . . . . . . . .O._ m m +.#. . . . . . . . . . . . . . . .=.' m m ' =. . . . . . . . . . . . . . . .#.+.m m _ O. . . . . . . . .",
" . . . . . . .O._ m m m m +.#. . . . . . . . . . . . . .=.' m m m m ' =. . . . . . . . . . . . . .#.+.m m m m _ O. . . . . . . .",
" . . . . . .O._ m m m m m m +.#. . . . . . . . . . . .=.' m m m m m m ' =. . . . . . . . . . . .#.+.m m m m m m _ O. . . . . . .",
" . . . . .-._ m m m m m m m m +.#. . . . . . . . . .=.' m m m m m m m m ' =. . . . . . . . . .#.+.m m m m m m m m _ O. . . . . .",
" . . ...} _ m m m m m m m m m m +.#. . . . . . . .-.) m m m m m m m m m m ) -. . . . . . . .#.+.m m m m m m m m m m %.X... . . .",
" . ...;.%.m m m m m m m m m m m m +.#. . . . . .-.) m m m m m m m m m m m m ) -. . . . . .#.+.m m m m m m m m m m m m %.;... . .",
" ...;.%.m m m m m m m m m m m m m m +.#. . . .-.) m m m m m m m m m m m m m m ) -. . . .#.+.m m m m m m m m m m m m m m %.;... .",
"..X.%.m m m m m m m m m m m m m m m m +.#. .-.) m m m m m m m m m m m m m m m m ) -. .#.+.m m m m m m m m m m m m m m m m %.X...",
"X.%.m m m m m m m m m m m m m m m m m m +.} ) m m m m m m m m m m m m m m m m m m ) } +.m m m m m m m m m m m m m m m m m m %.X.",
"m m m m m m m m m m m m m m m m m m m m m %.m m m m m m m m m m m m m m m m m m m m %.m m m m m m m m m m m m m m m m m m m m m ",
"m m m m m m m m m m m m m m m m m m m m m m m m m m m m m m m m m m m m m m m m m m m m m m m m m m m m m m m m m m m m m m m m ",
"m m m m m m m m m m m m m m m m m m m m m m m m m m m m m m m m m m m m m m m m m m m m m m m m m m m m m m m m m m m m m m m m ",
"m m m m m m m m m %.:.) m m m m m m m m m m m m m m m m m m m +.+.m m m m m m m m m m m m m m m m m m m _ >.%.m m m m m m m m m ",
"m m m m m m m m %.,.<.=.) m m m m m m m m m m m m m m m m m +.#.#.+.m m m m m m m m m m m m m m m m m _ 1.<.-._ m m m m m m m m ",
"m m m m m m m %.,.<. . .=.2.m m m m m m m m m m m m m m m +.#. . .#.+.m m m m m m m m m m m m m m m _ 1. . . .-._ m m m m m m m ",
"m m m m m m %.,.<. . . . .3.4.m m m m m m m m m m m m m +.#. . . . .#.+.m m m m m m m m m m m m m _ -. . . . . .-._ m m m m m m ",
"m m m m m _ } <. . . . . . .3.4.m m m m m m m m m m m +.#. . . . . . .#.+.m m m m m m m m m m m _ -. . . . . . . .-._ m m m m m ",
"m m m m _ O. . . . . . . . . .=.' m m m m m m m m m +.#. . . . . . . . .#.5._ m m m m m m m m ) -. . . . . . . . . .O._ m m m m ",
"m m m _ O. . . . . . . . . . . .#.+.m m m m m m m +.#. . . . . . . . . . .<.>.%.m m m m m m 4.6. . . . . . . . . . . .O._ m m m ",
"m m _ -. . . . . . . . . . . . . .#.+.m m m m m +.#. . . . . . . . . . . . .<.,.%.m m m m 4.3. . . . . . . . . . . . . .-._ m m ",
"m _ -. . . . . . . . . . . . . . . .#.+.m m m +.#. . . . . . . . . . . . . . .<.,.%.m m 4.3. . . . . . . . . . . . . . . .-._ m ",
"%.}  . . . . . . . . . . . . . . . . .#.+.m +.#. . . . . . . . . . . . . . . . .<.,.%.) =. . . . . . . . . . . . . . . . . .-._ ",
"} <. . . . . . . . . . . . . . . . . . .#.O.#. . . . . . . . . . . . . . . . . . .<.O.=. . . . . . . . . . . . . . . . . . . .] ",
" . . . . . . . . . . . . . . . . . . . . . . . . . . . . . . . . . . . . . . . . . . . . . . . . . . . . . . . . . . . . . . . ."
};
