/* XPM */
static char *_9683b91c4ad4da183dd6d0e5cfcde5evhBqZDvMlRfjjjSW[] = {
/* columns rows colors chars-per-pixel */
"64 64 104 2 ",
"   c white",
".  c #F9FEFF",
"X  c #DEFBFF",
"o  c #DBFAF6",
"O  c #DAF9F3",
"+  c #DEFBFE",
"@  c #DFFBFF",
"#  c #DDFAFE",
"$  c #DBF9FD",
"%  c #DAF8FC",
"&  c #D8F7FB",
"*  c #D7F6FB",
"=  c #D7F6FA",
"-  c #D8F7FC",
";  c #D9F8FC",
":  c #DDFBFE",
">  c #D6F6FA",
",  c #D3F4F8",
"<  c #CEF1F5",
"1  c #C8ECF1",
"2  c #C3EAEF",
"3  c #C0E7EC",
"4  c #BBE5EA",
"5  c #BAE4E9",
"6  c #C2E9EE",
"7  c #CDF0F5",
"8  c #DAF9FD",
"9  c #D4F4F9",
"0  c #CEF0F5",
"q  c #C6ECF0",
"w  c #BEE6EB",
"e  c #B9E4E9",
"r  c #BFE7EC",
"t  c #C7ECF1",
"y  c #D0F2F6",
"u  c #DCFAFE",
"i  c #DFFCFF",
"p  c #CCEFF4",
"a  c #C4EBEF",
"s  c #BEE7EC",
"d  c #B9E3E9",
"f  c #C1E8ED",
"g  c #CAEEF3",
"h  c #CDF0F4",
"j  c #D2F3F7",
"k  c #DAF8FD",
"l  c #BCE5EA",
"z  c #C0E8EC",
"x  c #C5EBEF",
"c  c #C9EDF1",
"v  c #C8EDF1",
"b  c #C3EAEE",
"n  c #BDE6EA",
"m  c #BBE4E9",
"M  c #BEE7EB",
"N  c #C4EAEF",
"B  c #DCF9FD",
"V  c #BBE5E9",
"C  c #C7ECF0",
"Z  c #CBEEF2",
"A  c #CDF0F3",
"S  c #D0F2F5",
"D  c #D1F3F6",
"F  c #D3F4F7",
"G  c #D5F5F8",
"H  c #D6F6F8",
"J  c #D6F5F8",
"K  c #D2F3F6",
"L  c #CAEEF2",
"P  c #C0E8ED",
"I  c #C5EAEF",
"U  c #CBEFF3",
"Y  c #D3F4F9",
"T  c #D2F3F8",
"R  c #C2E9ED",
"E  c #CEF0F4",
"W  c #D1F2F6",
"Q  c #D4F4F7",
"!  c #D1F2F5",
"~  c #CCEFF3",
"^  c #D4F5F9",
"/  c #D1F2F7",
"(  c #CCF0F4",
")  c #C5EBF0",
"_  c #CFF1F4",
"`  c #BDE6EB",
"'  c #D4F5F8",
"]  c #D3F3F7",
"[  c #C4EAEE",
"{  c #D4F4F8",
"}  c #BCE6EA",
"|  c #C1E8EC",
" . c #C6ECEF",
".. c #CDEFF2",
"X. c #CEF0F3",
"o. c #CCEFF2",
"O. c #C9EDF0",
"+. c #CBEEF1",
"@. c #CAEEF1",
"#. c #D3F3F6",
"$. c #CAEDF0",
"%. c #CBEFF2",
"&. c #D0F1F4",
"*. c #CEF1F4",
/* pixels */
"                                                                                                                                ",
". . . . . . . . . . . . . . . . . . . . . . . . . . . . . . . . . . . . . . . . . . . . . . . . . . . . . . . . . . . . . . . . ",
"X X X X X X X X X X X X X X X X X X X X X X X X X X X X X X X X X X X X X X X X X X X X X X X X X X X X X X X X X X X X X X X X ",
"X X X X X X X X X X X X X X X X X X X X X X X X X X X X X X X X X X X X X X X X X X X X X X X X X X X X X X X X X X X X X X X X ",
"X X X X X X X X X X X X X X X X X X X X X X X X X X X X X X X X X X X X X X X X X X X X X X X X X X X X X X X X X X X X X X X X ",
"X X X X X X X X X X X X X X X X X X X X X X X X X X X X X X X X X X X X X X X X X X X X X X X X X X X X X X X X X X X X X X X X ",
"X X X X X X X X X X X X X X X X X X X X X X X X X X X X X X X X X X X X X X X X X X X X X X X X X X X X X X X X X X X X X X X X ",
"X X X X X X X X X X X X X X X X X X X X X X X X X X X X X X X X X X X X X X X X X X X X X X X X X X X X X X X X X X X X X X X X ",
"o X X X X X X X X X X X X X X X X X X X X X X X X X X X X X X X X X X X X X X X X X X X X X X X X X X X X X X X X X X X X X X X ",
"O X X X X X X X X X X X X X X X X X X X X X X X X X X X X X X X X X X X X X X X X X X X X X X X X X X X X X X X X X X X X X X X ",
"+ X X X X X X X X X X X X X X X X X X X X X X X X X X X X X X X X X X X X X X X X X X X X X X X X X X X X X X X X X X X X X X X ",
"X X X X X X X X X X X X X X X X X X X X X X X X X X X X X X X X X X X X X X X X X X X X X X X X X X X X X X X X X X X X X X X X ",
"X X X X X X X X X X X X X X X X X X X X X X X X X X X X X X X X X X X X X X @ X # $ % & * = = = = = = = * - ; $ # X @ X X X X X ",
"X X X X X X X X X X X X X X X X X X X X X X X X X X X X X X X X X X X X : % > , < 1 2 3 4 5 5 5 5 5 5 5 5 3 6 1 7 , > 8 X @ X X ",
"X X X X X X X X X X X X X X X X X X X X X X X X X X X X X X X X @ # ; 9 0 q w 5 e 5 5 5 5 5 5 5 5 5 5 5 5 5 5 5 e 5 r t y * u @ ",
"i @ X X X X X X X X X X X X X X X X X X X X X X X X X X X X @ X 9 p a s 5 e 5 5 5 5 e e d d d d d d d d d e e 5 5 5 5 e 5 f g , ",
"h j k i X X X X X X X X X X X X X X X X X X X X X X X X @ # 9 p r 5 e 5 5 5 e 5 l z 6 x 1 c c c c c c c v x b z n e e 5 5 5 e s ",
"m M N h > # @ X X X X X X X X X X X X X X X X X X X @ B , v r m 5 5 5 5 V f C Z A S D F G H H H H H H H J F K S h L q z m 5 5 5 ",
"5 5 e l P I U Y $ X X X X X X X X X X X X X X X k T g N s 5 e 5 5 l R 1 E W Q G J G G G G G G G G G G G G G G G J G F ! ~ x n 5 ",
"5 5 5 5 5 5 4 w P N U y ^ > > > > > > > > / ( ) P w 4 5 5 5 5 4 C _ K Q G G G G G G G G G G G G G G G G G G G G G G G G G F S v ",
"E c z 4 5 5 5 5 5 5 4 l ` w w w w w w w w ` l 5 5 5 5 5 m n C E F G G G G G G G G G G G G G G G G G G G G G G G G G G G G G G Q ",
"G ' ] h [ M l V 5 5 5 5 5 5 5 5 5 5 5 5 5 5 5 5 5 4 l r C W { G G G G G G G G G G G G G G G G G G G G G G G G G G G G G G G G G ",
"G G G G ' j h C z w } l V m m m m m m m m l l w | C E ] ' G G G G G G G G G G G G G G G G G G G G G G G G G G G G G G G G G G G ",
"G G G G G G G G G K h L  .x x x x x x x x c ~ W G G G G G G G G G G G G G G G G G G G G G G G G G G G G G G G G G G G G G G G G ",
"G G G G G G G G G G F ' G G G G G G G G G G G G G G G G G G G Q Q G G G G G G G G G G G G G G G G G G G ' F G G G G G G G G G G ",
"G G G G G G G G G K .._ Q G G G G G G G G G G G G G G G G G F X.X.F G G G G G G G G G G G G G G G G G Q _ ..K G G G G G G G G G ",
"G G G G G G G G K o.O.O._ Q G G G G G G G G G G G G G G G F A O.O.A F G G G G G G G G G G G G G G G Q _ O.O.o.K G G G G G G G G ",
"G G G G G G G K o.O.O.O.O._ Q G G G G G G G G G G G G G F A O.O.O.O.A F G G G G G G G G G G G G G Q _ O.O.O.O.o.K G G G G G G G ",
"G G G G G G K o.O.O.O.O.O.O._ Q G G G G G G G G G G G F A O.O.O.O.O.O.A F G G G G G G G G G G G Q _ O.O.O.O.O.O.o.K G G G G G G ",
"G G G G G K o.O.O.O.O.O.O.O.O._ Q G G G G G G G G G F A O.O.O.O.O.O.O.O.A F G G G G G G G G G Q _ O.O.O.O.O.O.O.O.o.K G G G G G ",
"G G G G ! +.O.O.O.O.O.O.O.O.O.O._ Q G G G G G G G K o.O.O.O.O.O.O.O.O.O.O.o.K G G G G G G G Q _ O.O.O.O.O.O.O.O.O.O.+.! G G G G ",
"G G G ! +.O.O.O.O.O.O.O.O.O.O.O.O._ Q G G G G G K o.O.O.O.O.O.O.O.O.O.O.O.O.o.K G G G G G Q _ O.O.O.O.O.O.O.O.O.O.O.O.+.! G G G ",
"G G ! @.O.O.O.O.O.O.O.O.O.O.O.O.O.O._ Q G G G #.o.O.O.O.O.O.O.O.O.O.O.O.O.O.O.o.#.G G G Q _ O.O.O.O.O.O.O.O.O.O.O.O.O.O.@.! G G ",
"G ! @.O.O.O.O.O.O.O.O.O.O.O.O.O.O.O.O._ Q G #.o.O.O.O.O.O.O.O.O.O.O.O.O.O.O.O.O.o.#.G Q _ O.O.O.O.O.O.O.O.O.O.O.O.O.O.O.O.@.! G ",
"! @.O.O.O.O.O.O.O.O.O.O.O.O.O.O.O.O.O.O._ K o.O.O.O.O.O.O.O.O.O.O.O.O.O.O.O.O.O.O.o.K _ O.O.O.O.O.O.O.O.O.O.O.O.O.O.O.O.O.O.@.! ",
"$.O.O.O.O.O.O.O.O.O.O.O.O.O.O.O.O.O.O.O.O.@.O.O.O.O.O.O.O.O.O.O.O.O.O.O.O.O.O.O.O.O.@.O.O.O.O.O.O.O.O.O.O.O.O.O.O.O.O.O.O.O.O.$.",
"O.O.O.O.O.O.O.O.O.O.O.O.O.O.O.O.O.O.O.O.O.O.O.O.O.O.O.O.O.O.O.O.O.O.O.O.O.O.O.O.O.O.O.O.O.O.O.O.O.O.O.O.O.O.O.O.O.O.O.O.O.O.O.O.",
"O.O.O.O.O.O.O.O.O.O.O.O.O.O.O.O.O.O.O.O.O.O.O.O.O.O.O.O.O.O.O.O.O.O.O.O.O.O.O.O.O.O.O.O.O.O.O.O.O.O.O.O.O.O.O.O.O.O.O.O.O.O.O.O.",
"O.O.O.O.O.O.O.O.O.O.o.$.O.O.O.O.O.O.O.O.O.O.O.O.O.O.O.O.O.O.O.+.+.O.O.O.O.O.O.O.O.O.O.O.O.O.O.O.O.O.O.O.$.o.O.O.O.O.O.O.O.O.O.O.",
"O.O.O.O.O.O.O.O.O.A #.S @.O.O.O.O.O.O.O.O.O.O.O.O.O.O.O.O.O.%.K K %.O.O.O.O.O.O.O.O.O.O.O.O.O.O.O.O.O.@.S #.A O.O.O.O.O.O.O.O.O.",
"O.O.O.O.O.O.O.O.A F G G ! @.O.O.O.O.O.O.O.O.O.O.O.O.O.O.O.%.K G G K %.O.O.O.O.O.O.O.O.O.O.O.O.O.O.O.@.! G G F A O.O.O.O.O.O.O.O.",
"O.O.O.O.O.O.O.A F G G G G ! @.O.O.O.O.O.O.O.O.O.O.O.O.O.%.K G G G G K %.O.O.O.O.O.O.O.O.O.O.O.O.O.@.! G G G G F A O.O.O.O.O.O.O.",
"O.O.O.O.O.O.A F G G G G G G S @.O.O.O.O.O.O.O.O.O.O.O.%.K G G G G G G K %.O.O.O.O.O.O.O.O.O.O.O.@.S G G G G G G F A O.O.O.O.O.O.",
"O.O.O.O.O.A F G G G G G G G G S @.O.O.O.O.O.O.O.O.O.o.K G G G G G G G G K o.O.O.O.O.O.O.O.O.O.@.S G G G G G G G G F A O.O.O.O.O.",
"O.O.O.O.A F G G G G G G G G G G &.@.O.O.O.O.O.O.O.A F G G G G G G G G G G F A O.O.O.O.O.O.O.@.&.G G G G G G G G G G Q X.O.O.O.O.",
"O.O.O.X.Q G G G G G G G G G G G G &.@.O.O.O.O.O.A F G G G G G G G G G G G G F A O.O.O.O.O.@.&.G G G G G G G G G G G G Q X.O.O.O.",
"O.O.X.Q G G G G G G G G G G G G G G &.@.O.O.O.A F G G G G G G G G G G G G G G F A O.O.O.@.&.G G G G G G G G G G G G G G Q X.O.O.",
"O.X.Q G G G G G G G G G G G G G G G G &.@.O.A F G G G G G G G G G G G G G G G G F A O.@.&.G G G G G G G G G G G G G G G G Q X.O.",
"_ Q G G G G G G G G G G G G G G G G G G S X.F G G G G G G G G G G G G G G G G G G F X.S G G G G G G G G G G G G G G G G G G Q _ ",
"' G G G G G G G G G G G G G G G G G G G G Q G G G G G G G G G G G G G G G G G G G G Q G G G G G G G G G G G G G G G G G G G G ' ",
"G G G G G G G G G G G G G G G G G G G G G G G G G G G G G G G G G G G G G G G G G G G G G G G G G G G G G G G G G G G G G G G G ",
"G G G G G G G G G G G G G G G G G G G G G G G G G G G G G G G G G G G G G G G G G G G G G G G G G G G G G G G G G G G G G G G G ",
"G G G G G G G G G ' &.K G G G G G G G G G G G G G G G G G G G ! ! G G G G G G G G G G G G G G G G G G G Q _ Q G G G G G G G G G ",
"G G G G G G G G ' *.$.+.K G G G G G G G G G G G G G G G G G S @.@.S G G G G G G G G G G G G G G G G G F o.$...Q G G G G G G G G ",
"G G G G G G G Q *.$.O.O.+.K G G G G G G G G G G G G G G G S @.O.O.@.S G G G G G G G G G G G G G G G F ..O.O.O...F G G G G G G G ",
"G G G G G G F X.@.O.O.O.O.+.K G G G G G G G G G G G G G S @.O.O.O.O.@.S G G G G G G G G G G G G G F ..O.O.O.O.O...F G G G G G G ",
"G G G G G F ..O.O.O.O.O.O.O.+.K G G G G G G G G G G G S @.O.O.O.O.O.O.@.S G G G G G G G G G G G F ..O.O.O.O.O.O.O...F G G G G G ",
"G G G G F ..O.O.O.O.O.O.O.O.O.+.D G G G G G G G G G S @.O.O.O.O.O.O.O.O.@.S Q G G G G G G G G K o.O.O.O.O.O.O.O.O.O...F G G G G ",
"G G G Q A O.O.O.O.O.O.O.O.O.O.O.+.! G G G G G G G S @.O.O.O.O.O.O.O.O.O.O.$._ ' G G G G G G K +.O.O.O.O.O.O.O.O.O.O.O...F G G G ",
"G G ' *.O.O.O.O.O.O.O.O.O.O.O.O.O.+.! G G G G G S @.O.O.O.O.O.O.O.O.O.O.O.O.@._ ' G G G G K +.O.O.O.O.O.O.O.O.O.O.O.O.O...F G G ",
"G F A @.O.O.O.O.O.O.O.O.O.O.O.O.O.O.+.! G G G S @.O.O.O.O.O.O.O.O.O.O.O.O.O.O.@._ ' G G K +.O.O.O.O.O.O.O.O.O.O.O.O.O.O.O...F G ",
"' X.O.O.O.O.O.O.O.O.O.O.O.O.O.O.O.O.O.@.! ' S @.O.O.O.O.O.O.O.O.O.O.O.O.O.O.O.O.@.*.' K +.O.O.O.O.O.O.O.O.O.O.O.O.O.O.O.O.O...F ",
"X.$.O.O.O.O.O.O.O.O.O.O.O.O.O.O.O.O.O.O.@.X.@.O.O.O.O.O.O.O.O.O.O.O.O.O.O.O.O.O.O.$.A +.O.O.O.O.O.O.O.O.O.O.O.O.O.O.O.O.O.O.O.o.",
"O.O.O.O.O.O.O.O.O.O.O.O.O.O.O.O.O.O.O.O.O.O.O.O.O.O.O.O.O.O.O.O.O.O.O.O.O.O.O.O.O.O.O.O.O.O.O.O.O.O.O.O.O.O.O.O.O.O.O.O.O.O.O.O."
};
