/* XPM */
static char *c601f6916e554a46b1c4045e319a4ab7I4cWNnkZmoimYTPY[] = {
/* columns rows colors chars-per-pixel */
"128 128 19 1 ",
"  c #47704C",
". c #B4C9C9",
"X c #B9D1D0",
"o c #BFD6D7",
"O c #ACC0C1",
"+ c #ACC0BF",
"@ c None",
"# c #ACC0C1",
"$ c #95A7A8",
"% c #B3C8C9",
"& c #BBD1D2",
"* c #90A1A2",
"= c #BFD6D7",
"- c #B8CECF",
"; c #98AAAB",
": c #9CAEAF",
"> c #B0C5C6",
", c #A8BCBD",
"< c #BFD7D8",
/* pixels */
"                X.o==========================================================================================o.X                ",
"                .o===========================================================================================<o.X               ",
"              X.o==<<<<<<<<<<<<<<<<<<<<<<<<<<<<<<<<<<<<<<<<<<<<<<<<<<<<<<<<<<<<<<<<<<<<<<<<<<<<<<<<<<<<<<<<<<==o.X              ",
"              .o==&------------------------------------------------------------------------------------------&==o.X             ",
"            X.o==-############################################################################################-==o.X            ",
"            .o==-##############################################################################################%==o.X           ",
"          X.o==-################################################################################################-==o.X          ",
"          .o==-##################################################################################################%==o.X         ",
"        X.o==-####################################################################################################-==o.X        ",
"        .o==-######################################################################################################-==o.X       ",
"      X.o==-########################################################################################################-==o.X      ",
"      .o==-##########################################################################################################-==o.X     ",
"    X.o==-############################################################################################################-==o.X    ",
"    .o==-##############################################################################################################-==o.X   ",
"  X.o==-################################################################################################################-==o.X  ",
"  .o==-##################################################################################################################%==o.X ",
"X.o==-####################################################################################################################-==o.X",
".o==-######################################################################################################################%==o.",
"o==-##############>>>>>>>>>>>>>>>>>>,:;;;;;;;;;;;;;;;;;;;;;;;;;;;;;;;;;;;;;;;;;;;;;;;;;;;;:>-----------------%##############-==o",
"==-###############>%%%%%%%%%%%%%%%%%>,***************************************************$,-&&&&&&&&&&&&&&&&&-###############-==",
"=-################>%%%%%%%%%%%%%%%%%%>,$*************************************************,&&&&&&&&&&&&&&&&&&&-################-=",
"%#################>%%%%%%%%%%%%%%%%%%%>,$***********************************************,&&&&&&&&&&&&&&&&&&&&-#################%",
"##################>%%%%%%%%%%%%%%%%%%%%>,;$$*$$*$$*$$*$$*$$*$$*$$*$$*$$*$$*$$*$$*$$*$$;,&&&&&&&&&&&&&&&&&&&&&-##################",
"##################>%%%%%%%%%%%%%%%%%%%%%>,;$$$$$$$$$$$$$$$$$$$$$$$$$$$$$$$$$$$$$$$$$$;#&&&&&&&&&&&&&&&&&&&&&&-##################",
"##################>%%%%%%%%%%%%%%%%%%%%%%%,;$$$$$$$$$$$$$$$$$$$$$$$$$$$$$$$$$$$$$$$$;#&&&&&&&&&&&&&&&&&&&&&&&-##################",
"##################>%%%%%%%%%%%%%%%%%%%%%%%>,;$$$$$$$$$$$$$$$$$$$$$$$$$$$$$$$$$$$$$$;#&&&&&&&&&&&&&&&&&&&&&&&&-##################",
"##################>%%%%%%%%%%%%%%%%%%%%%%%%%,;$$$$$$$$$$$$$$$$$$$$$$$$$$$$$$$$$$$$;#&&&&&&&&&&&&&&&&&&&&&&&&&-##################",
"##################>%%%%%%%%%%%%%%%%%%%%%%%%%>,;$$$$$$$$$$$$$$$$$$$$$$$$$$$$$$$$$$;#&&&&&&&&&&&&&&&&&&&&&&&&&&-##################",
"##################>%%%%%%%%%%%%%%%%%%%%%%%%%%%,;$$$$$$$$$$$$$$$$$$$$$$$$$$$$$$$$;#&&&&&&&&&&&&&&&&&&&&&&&&&&&-##################",
"##################>%%%%%%%%%%%%%%%%%%%%%%%%%%%>,;$$$$$$$$$$$$$$$$$$$$$$$$$$$$$$;#&&&&&&&&&&&&&&&&&&&&&&&&&&&&-##################",
"##################>%%%%%%%%%%%%%%%%%%%%%%%%%%%%%,;$$$$$$$$$$$$$$$$$$$$$$$$$$$$;#&&&&&&&&&&&&&&&&&&&&&&&&&&&&&-##################",
"##################>%%%%%%%%%%%%%%%%%%%%%%%%%%%%%>,;$$$$$$$$$$$$$$$$$$$$$$$$$$;#&&&&&&&&&&&&&&&&&&&&&&&&&&&&&&-##################",
"##################>%%%%%%%%%%%%%%%%%%%%%%%%%%%%%%%,;$$$$$$$$$$$$$$$$$$$$$$$$;#&&&&&&&&&&&&&&&&&&&&&&&&&&&&&&&-##################",
"##################>%%%%%%%%%%%%%%%%%%%%%%%%%%%%%%%%,;$$$$$$$$$$$$$$$$$$$$$$;#&&&&&&&&&&&&&&&&&&&&&&&&&&&&&&&&-##################",
"##################>%%%%%%%%%%%%%%%%%%%%%%%%%%%%%%%%%,;$$$$$$$$$$$$$$$$$$$$;#&&&&&&&&&&&&&&&&&&&&&&&&&&&&&&&&&-##################",
"##################>%%%%%%%%%%%%%%%%%%%%%%%%%%%%%%%%%%,;$$$$$$$$$$$$$$$$$$;#&&&&&&&&&&&&&&&&&&&&&&&&&&&&&&&&&&-##################",
"###################%%%%%%%%%%%%%%%%%%%%%%%%%%%%%%%%%%%,;$$$$$$$$$$$$$$$$;#&&&&&&&&&&&&&&&&&&&&&&&&&&&&&&&&&&&%##################",
"##################:,%%%%%%%%%%%%%%%%%%%%%%%%%%%%%%%%%%>,;$$$$$$$$$$$$$$;#&&&&&&&&&&&&&&&&&&&&&&&&&&&&&&&&&&&>:##################",
"##################;$,%%%%%%%%%%%%%%%%%%%%%%%%%%%%%%%%%%%,;$$$$$$$$$$$$;#&&&&&&&&&&&&&&&&&&&&&&&&&&&&&&&&&&&>;$##################",
"##################;*$,%%%%%%%%%%%%%%%%%%%%%%%%%%%%%%%%%%>,;$$$$$$$$$$;#&&&&&&&&&&&&&&&&&&&&&&&&&&&&&&&&&&&>;*;##################",
"##################;**$,%%%%%%%%%%%%%%%%%%%%%%%%%%%%%%%%%%%,;$$$$$$$$;#&&&&&&&&&&&&&&&&&&&&&&&&&&&&&&&&&&&>;**;##################",
"##################:***$,%%%%%%%%%%%%%%%%%%%%%%%%%%%%%%%%%%>,;$$$$$$;#&&&&&&&&&&&&&&&&&&&&&&&&&&&&&&&&&&&>$***:##################",
"##################:$***$,%%%%%%%%%%%%%%%%%%%%%%%%%%%%%%%%%%%,;$$$$;#&&&&&&&&&&&&&&&&&&&&&&&&&&&&&&&&&&&>;***$:##################",
"##################:$$***$,%%%%%%%%%%%%%%%%%%%%%%%%%%%%%%%%%%%,;$$;#&&&&&&&&&&&&&&&&&&&&&&&&&&&&&&&&&&&>;***$$:##################",
"##################:$$$***$,%%%%%%%%%%%%%%%%%%%%%%%%%%%%%%%%%%%,;;#&&&&&&&&&&&&&&&&&&&&&&&&&&&&&&&&&&&>;***$$$:##################",
"##################:$$$$***$,%%%%%%%%%%%%%%%%%%%%%%%%%%%%%%%%%%%,#&&&&&&&&&&&&&&&&&&&&&&&&&&&&&&&&&&&>;***$$$$:##################",
"##################:$$$$$***$,%%%%%%%%%%%%%%%%%%%%%%%%%%%%%%%%%%-&&&&&&&&&&&&&&&&&&&&&&&&&&&&&&&&&&&>;***$$$$$:##################",
"##################:$$$$$$***$,%%%%%%%%%%%%%%%%%%%%%%%%%%%%%%%%-&&&&&&&&&&&&&&&&&&&&&&&&&&&&&&&&&&&>;***$$$$$$:##################",
"##################:$$$$$$$***$,%%%%%%%%%%%%%%%%%%%%%%%%%%%%%%-&&&&&&&&&&&&&&&&&&&&&&&&&&&&&&&&&&&>;***$$$$$$$:##################",
"##################:$$$$$$$$***$,%%%%%%%%%%%%%%%%%%%%%%%%%%%%-&&&&&&&&&&&&&&&&&&&&&&&&&&&&&&&&&&&>;***$$$$$$$$:##################",
"##################:$$$$$$$$$***$,%%%%%%%%%%%%%%%%%%%%%%%%%%-&&&&&&&&&&&&&&&&&&&&&&&&&&&&&&&&&&&>;***$$$$$$$$$:##################",
"##################:$$$$$$$$$$***$,%%%%%%%%%%%%%%%%%%%%%%%%-&&&&&&&&&&&&&&&&&&&&&&&&&&&&&&&&&&&>;***$$$$$$$$$$:##################",
"##################:$$$$$$$$$$$***$,%%%%%%%%%%%%%%%%%%%%%%-&&&&&&&&&&&&&&&&&&&&&&&&&&&&&&&&&&&>$***$$$$$$$$$$$:##################",
"##################:$$$$$$$$$$$$***$,%%%%%%%%%%%%%%%%%%%%-&&&&&&&&&&&&&&&&&&&&&&&&&&&&&&&&&&&>;***$$$$$$$$$$$$:##################",
"##################:$$$$$$$$$$$$$***$,%%%%%%%%%%%%%%%%%%-&&&&&&&&&&&&&&&&&&&&&&&&&&&&&&&&&&&>;***$$$$$$$$$$$$$:##################",
"##################:$$$$$$$$$$$$$$***$,%%%%%%%%%%%%%%%%-&&&&&&&&&&&&&&&&&&&&&&&&&&&&&&&&&&&>;***$$$$$$$$$$$$$$:##################",
"##################:$$$$$$$$$$$$$$$***$,%%%%%%%%%%%%%%-&&&&&&&&&&&&&&&&&&&&&&&&&&&&&&&&&&&>;***$$$$$$$$$$$$$$$:##################",
"##################:$$$$$$$$$$$$$$$$***$,%%%%%%%%%%%%-&&&&&&&&&&&&&&&&&&&&&&&&&&&&&&&&&&&>;***$$$$$$$$$$$$$$$$:##################",
"##################:$$$$$$$$$$$$$$$$$***$,%%%%%%%%%%-&&&&&&&&&&&&&&&&&&&&&&&&&&&&&&&&&&&>;***$$$$$$$$$$$$$$$$$:##################",
"##################:$$$$$$$$$$$$$$$$$$***$,%%%%%%%%-&&&&&&&&&&&&&&&&&&&&&&&&&&&&&&&&&&&>;***$$$$$$$$$$$$$$$$$$:##################",
"##################:$$$$$$$$$$$$$$$$$$$***$,%%%%%%-&&&&&&&&&&&&&&&&&&&&&&&&&&&&&&&&&&&>;***$$$$$$$$$$$$$$$$$$$:##################",
"##################:$$$$$$$$$$$$$$$$$$$$***$,%%%%-&&&&&&&&&&&&&&&&&&&&&&&&&&&&&&&&&&&>;***$$$$$$$$$$$$$$$$$$$$:##################",
"##################:$$$$$$$$$$$$$$$$$$$$$***$,%%-&&&&&&&&&&&&&&&&&&&&&&&&&&&&&&&&&&&>$***$$$$$$$$$$$$$$$$$$$$$:##################",
"##################:$$$$$$$$$$$$$$$$$$$$$$***$#-&&&&&&&&&&&&&&&&&&&&&&&&&&&&&&&&&&&>;***$$$$$$$$$$$$$$$$$$$$$$:##################",
"##################:$$$$$$$$$$$$$$$$$$$$$$$**$,&&&&&&&&&&&&&&&&&&&&&&&&&&&&&&&&&&&-,$**$$$$$$$$$$$$$$$$$$$$$$$:##################",
"##################:$$$$$$$$$$$$$$$$$$$$$$$$$,&&&&&&&&&&&&&&&&&&&&&&&&&&&&&&&&&&&-%>,$$$$$$$$$$$$$$$$$$$$$$$$$:##################",
"##################:$$$$$$$$$$$$$$$$$$$$$$$;#&&&&&&&&&&&&&&&&&&&&&&&&&&&&&&&&&&&-%%%%,;$$$$$$$$$$$$$$$$$$$$$$$:##################",
"##################:$$$$$$$$$$$$$$$$$$$$$$;#&&&&&&&&&&&&&&&&&&&&&&&&&&&&&&&&&&&-%%%%%>,;$$$$$$$$$$$$$$$$$$$$$$:##################",
"##################:$$$$$$$$$$$$$$$$$$$$$;#&&&&&&&&&&&&&&&&&&&&&&&&&&&&&&&&&&&-%%%%%%%%,;$$$$$$$$$$$$$$$$$$$$$:##################",
"##################:$$$$$$$$$$$$$$$$$$$$;#&&&&&&&&&&&&&&&&&&&&&&&&&&&&&&&&&&&-%%%%%%%%%>,;$$$$$$$$$$$$$$$$$$$$:##################",
"##################:$$$$$$$$$$$$$$$$$$$;#&&&&&&&&&&&&&&&&&&&&&&&&&&&&&&&&&&&-%%%%%%%%%%%%,;$$$$$$$$$$$$$$$$$$$:##################",
"##################:$$$$$$$$$$$$$$$$$$;#&&&&&&&&&&&&&&&&&&&&&&&&&&&&&&&&&&&-%%%%%%%%%%%%%>,;$$$$$$$$$$$$$$$$$$:##################",
"##################:$$$$$$$$$$$$$$$$$;#&&&&&&&&&&&&&&&&&&&&&&&&&&&&&&&&&&&-%%%%%%%%%%%%%%%%,;$$$$$$$$$$$$$$$$$:##################",
"##################:$$$$$$$$$$$$$$$$;#&&&&&&&&&&&&&&&&&&&&&&&&&&&&&&&&&&&-%%%%%%%%%%%%%%%%%>,;$$$$$$$$$$$$$$$$:##################",
"##################:$$$$$$$$$$$$$$$;#&&&&&&&&&&&&&&&&&&&&&&&&&&&&&&&&&&&-%%%%%%%%%%%%%%%%%%%%,;$$$$$$$$$$$$$$$:##################",
"##################:$$$$$$$$$$$$$$;#&&&&&&&&&&&&&&&&&&&&&&&&&&&&&&&&&&&-%%%%%%%%%%%%%%%%%%%%%%,;$$$$$$$$$$$$$$:##################",
"##################:$$$$$$$$$$$$$;#&&&&&&&&&&&&&&&&&&&&&&&&&&&&&&&&&&&-%%%%%%%%%%%%%%%%%%%%%%%%,;$$$$$$$$$$$$$:##################",
"##################:$$$$$$$$$$$$;#&&&&&&&&&&&&&&&&&&&&&&&&&&&&&&&&&&&-%%%%%%%%%%%%%%%%%%%%%%%%%%,;$$$$$$$$$$$$:##################",
"##################:$$$$$$$$$$$;#&&&&&&&&&&&&&&&&&&&&&&&&&&&&&&&&&&&-%%%%%%%%%%%%%%%%%%%%%%%%%%%%,;$$$$$$$$$$$:##################",
"##################:$$$$$$$$$$;#&&&&&&&&&&&&&&&&&&&&&&&&&&&&&&&&&&&-%%%%%%%%%%%%%%%%%%%%%%%%%%%%%>,;$$$$$$$$$$:##################",
"##################:$$$$$$$$$;#&&&&&&&&&&&&&&&&&&&&&&&&&&&&&&&&&&&-%%%%%%%%%%%%%%%%%%%%%%%%%%%%%%%%,;$$$$$$$$$:##################",
"##################:$$$$$$$$;#&&&&&&&&&&&&&&&&&&&&&&&&&&&&&&&&&&&-%%%%%%%%%%%%%%%%%%%%%%%%%%%%%%%%%>,;$$$$$$$$:##################",
"##################:$$$$$$$;#&&&&&&&&&&&&&&&&&&&&&&&&&&&&&&&&&&&>#%%%%%%%%%%%%%%%%%%%%%%%%%%%%%%%%%%%,;$$$$$$$:##################",
"##################:$$$$$$;#&&&&&&&&&&&&&&&&&&&&&&&&&&&&&&&&&&&>;$,%%%%%%%%%%%%%%%%%%%%%%%%%%%%%%%%%%>,;$$$$$$:##################",
"##################:$$$$$;#&&&&&&&&&&&&&&&&&&&&&&&&&&&&&&&&&&&>$**$,%%%%%%%%%%%%%%%%%%%%%%%%%%%%%%%%%%%,;$$$$$:##################",
"##################:$$$$;#&&&&&&&&&&&&&&&&&&&&&&&&&&&&&&&&&&&>;****$,%%%%%%%%%%%%%%%%%%%%%%%%%%%%%%%%%%>,;$$$$:##################",
"##################:$$$;#&&&&&&&&&&&&&&&&&&&&&&&&&&&&&&&&&&&>;******$,%%%%%%%%%%%%%%%%%%%%%%%%%%%%%%%%%%%,;$$$:##################",
"##################:$$;#&&&&&&&&&&&&&&&&&&&&&&&&&&&&&&&&&&&>;***$$***$,%%%%%%%%%%%%%%%%%%%%%%%%%%%%%%%%%%%,;$$:##################",
"##################:$;#&&&&&&&&&&&&&&&&&&&&&&&&&&&&&&&&&&&>;***$$$$***$,%%%%%%%%%%%%%%%%%%%%%%%%%%%%%%%%%%%,;$:##################",
"##################:;#&&&&&&&&&&&&&&&&&&&&&&&&&&&&&&&&&&&>;***$$$$$$***$,%%%%%%%%%%%%%%%%%%%%%%%%%%%%%%%%%%>,;:##################",
"##################:#&&&&&&&&&&&&&&&&&&&&&&&&&&&&&&&&&&&>;***$$$$$$$$***$,%%%%%%%%%%%%%%%%%%%%%%%%%%%%%%%%%%%,:##################",
"##################>&&&&&&&&&&&&&&&&&&&&&&&&&&&&&&&&&&&>;***$$$$$$$$$$***$,%%%%%%%%%%%%%%%%%%%%%%%%%%%%%%%%%%%###################",
"##################-&&&&&&&&&&&&&&&&&&&&&&&&&&&&&&&&&&>;***$$$$$$$$$$$$***$,%%%%%%%%%%%%%%%%%%%%%%%%%%%%%%%%%%>##################",
"##################-&&&&&&&&&&&&&&&&&&&&&&&&&&&&&&&&&>;***$$$$$$$$$$$$$$***$,%%%%%%%%%%%%%%%%%%%%%%%%%%%%%%%%%>##################",
"##################-&&&&&&&&&&&&&&&&&&&&&&&&&&&&&&&&>$***$$$$$$$$$$$$$$$$***$,%%%%%%%%%%%%%%%%%%%%%%%%%%%%%%%%>##################",
"##################-&&&&&&&&&&&&&&&&&&&&&&&&&&&&&&&>;***$$$$$$$$$$$$$$$$$$***$,%%%%%%%%%%%%%%%%%%%%%%%%%%%%%%%>##################",
"##################-&&&&&&&&&&&&&&&&&&&&&&&&&&&&&&>;***$$$$$$$$$$$$$$$$$$$$***$,%%%%%%%%%%%%%%%%%%%%%%%%%%%%%%>##################",
"##################-&&&&&&&&&&&&&&&&&&&&&&&&&&&&&>;***$$$$$$$$$$$$$$$$$$$$$$***$,%%%%%%%%%%%%%%%%%%%%%%%%%%%%%>##################",
"##################-&&&&&&&&&&&&&&&&&&&&&&&&&&&&>;***$$$$$$$$$$$$$$$$$$$$$$$$***$,%%%%%%%%%%%%%%%%%%%%%%%%%%%%>##################",
"##################-&&&&&&&&&&&&&&&&&&&&&&&&&&&>;***$$$$$$$$$$$$$$$$$$$$$$$$$$***$,%%%%%%%%%%%%%%%%%%%%%%%%%%%>##################",
"##################-&&&&&&&&&&&&&&&&&&&&&&&&&&>;***$$$$$$$$$$$$$$$$$$$$$$$$$$$$***$,%%%%%%%%%%%%%%%%%%%%%%%%%%>##################",
"##################-&&&&&&&&&&&&&&&&&&&&&&&&&>;***$$$$$$$$$$$$$$$$$$$$$$$$$$$$$$***$,%%%%%%%%%%%%%%%%%%%%%%%%%>##################",
"##################-&&&&&&&&&&&&&&&&&&&&&&&&>;***$$$$$$$$$$$$$$$$$$$$$$$$$$$$$$$$***$,%%%%%%%%%%%%%%%%%%%%%%%%>##################",
"##################-&&&&&&&&&&&&&&&&&&&&&&&>;***$$$$$$$$$$$$$$$$$$$$$$$$$$$$$$$$$$***$,%%%%%%%%%%%%%%%%%%%%%%%>##################",
"##################-&&&&&&&&&&&&&&&&&&&&&&>;***$$$$$$$$$$$$$$$$$$$$$$$$$$$$$$$$$$$$***$,%%%%%%%%%%%%%%%%%%%%%%>##################",
"##################-&&&&&&&&&&&&&&&&&&&&&>$***$$$$$$$$$$$$$$$$$$$$$$$$$$$$$$$$$$$$$$***$,%%%%%%%%%%%%%%%%%%%%%>##################",
"##################-&&&&&&&&&&&&&&&&&&&&>;***$$$$$$$$$$$$$$$$$$$$$$$$$$$$$$$$$$$$$$$$***$,%%%%%%%%%%%%%%%%%%%%>##################",
"##################-&&&&&&&&&&&&&&&&&&&>;***$$$$$$$$$$$$$$$$$$$$$$$$$$$$$$$$$$$$$$$$$$***$,%%%%%%%%%%%%%%%%%%%>##################",
"##################-&&&&&&&&&&&&&&&&&&>;***$$$$$$$$$$$$$$$$$$$$$$$$$$$$$$$$$$$$$$$$$$$$***$,%%%%%%%%%%%%%%%%%%>##################",
"@#################%-----------------%:$;;::::::::::::::::::::::::::::::::::::::::::::::;;$:#>>>>>>>>>>>>>>>>>>#################@",
".O####################################>#######################################################################################O.",
"+.O##########################################################################################################################O.+",
" +.O########################################################################################################################O.+ ",
" X+.O######################################################################################################################O.+  ",
"  X+.O####################################################################################################################O.+   ",
"   ++.O##################################################################################################################O.+    ",
"    X+.O################################################################################################################O.+     ",
"     X+.O##############################################################################################################@.X      ",
"      X+.O############################################################################################################O.X       ",
"       ++.O##########################################################################################################@.X        ",
"        X+.O########################################################################################################O.X         ",
"         ++.O######################################################################################################O.X          ",
"          X+.O####################################################################################################O.+           ",
"           ++.O##################################################################################################O.+            ",
"            X+.O################################################################################################O.+             ",
"             ++.O##############################################################################################O.+              ",
"              X+.O############################################################################################O.+               ",
"               ++.@##########################################################################################@.+                "
};
