/* XPM */
static char *ad907e40f72c4f41e62781eebacb0a66LkbNwNagVg7j0Cjk[] = {
/* columns rows colors chars-per-pixel */
"64 64 6 1 ",
"  c None",
". c black",
"X c #3F3427",
"o c #9E5B5B",
"O c #1F3C8C",
"+ c white",
/* pixels */
"                                                                ",
"                                                                ",
"                                                                ",
"                                                                ",
"                                                                ",
"                                                                ",
"                                ..                              ",
"             .                  ..                  .           ",
"              ....            ......            ....            ",
"              ....            ......            ....            ",
"                ......      ..........      ......              ",
"                ......      ..........      ......              ",
"                  ......  ..............  ......                ",
"                  ......  ..............  ......                ",
"                ..................................              ",
"                ..................................              ",
"              ......................................            ",
"              ......................................            ",
"           ...........XXXXXXXXXXXXXXXXXXXXXX...........         ",
"            ..........XXXXXXXXXXXXXXXXXXXXXX..........          ",
"              ......XXXXXXXXXXXXXXXXXXXXXXXXXX......            ",
"              ......XXXXXXXXXXXXXXXXXXXXXXXXXX......            ",
"                ..XXXXXXXXXXXXXXXXXXXXXXXXXXXXXX..              ",
"                ..XXXXXXXXXXXXXXXXXXXXXXXXXXXXXX..              ",
"                  XXXXXX.+XXXXXXXXXXXXXX.+XXXXXX                ",
"                  XXXXXX..XXXXXXXXXXXXXX..XXXXXX                ",
"                  XXXXXXXXXXXXXXXXXXXXXXXXXXXXXX                ",
"                  XXXXXXXXXXXXXXXXXXXXXXXXXXXXXX                ",
"                    XXXXXXXX..........XXXXXXXX                  ",
"                    XXXXXXXX..........XXXXXXXX                  ",
"                    XXXXXX..XXooooooXX..XXXXXX                  ",
"                    XXXXXX..XXooooooXX..XXXXXX                  ",
"                        XXXXXXXXXXXXXXXXXX                      ",
"                        XXXXXXXXXXXXXXXXXX                      ",
"                            XX......XX                          ",
"                            XX......XX                          ",
"                      ++++++++++..++++++++++                    ",
"                      ++++++++++..++++++++++                    ",
"                      ++++++++++++++++++++++                    ",
"                      ++++++++++++++++++++++                    ",
"                      XX++++++++++++++++++XX                    ",
"                      XX++++++++++++++++++XX                    ",
"                      XXXX++++++++++++++XXXX                    ",
"                      XXXX++++++++++++++XXXX                    ",
"                      XXXX++++++++++++++XXXX                    ",
"                      XXXX++++++++++++++XXXX                    ",
"                    XXXXXX++++++++++++++XXXX                    ",
"                    XXXXXX++++++++++++++XXXX                    ",
"                          OOOOOOOOOOOOOO                        ",
"                          OOOOOOOOOOOOOO                        ",
"                          OOOOOO  OOOOOO                        ",
"                          OOOOOO  OOOOOO                        ",
"                          OOOOOO  OOOOOO                        ",
"                          OOOOOO  OOOOOO                        ",
"                          OOOOOO  OOOOOO                        ",
"                          OOOOOO  OOOOOO                        ",
"                          OOOOOO  OO......                      ",
"                          OOOOOO  OO......                      ",
"                          ......  ........                      ",
"                          ......  ........                      ",
"                                                                ",
"                                                                ",
"                                                                ",
"                                                                "
};
