/* XPM */
static char *e7e64430903a4a0eb4e8f880491b62c1c8pptFcnfHryqKZq[] = {
/* columns rows colors chars-per-pixel */
"64 64 16 1 ",
"  c None",
". c #010101",
"X c #D34444",
"o c #D36144",
"O c #D39344",
"+ c #D3B244",
"@ c #CED344",
"# c #4445D3",
"$ c #6F44D3",
"% c #D34486",
"& c #D344BF",
"* c #A244D3",
"= c #44D391",
"- c #448BD3",
"; c #44C9D3",
": c white",
/* pixels */
"                                                                ",
"                                                                ",
"                                                                ",
"                                                                ",
"                                                                ",
"                                                                ",
"                                                                ",
"                                                                ",
"                                                                ",
"                                                                ",
"                                                                ",
"                        ................                        ",
"                    ......:..::...:..::.....                    ",
"                  ...XX..:....:..:....:..XX...                  ",
"                 ..XXXX.:....:..:....:...XXXX..                 ",
"                ..%XXXX..:::.::..:::.::..XXXX%..                ",
"                .%%XXXXXX..:.......:...XXXXXX%%.                ",
"               .&%%XXXXXX....      ....XXXXXX%%&.               ",
"               .&%%%%%%..              ..%%%%%%&.               ",
"              ..&%%%%%..                ..%%%%%&..              ",
"              .&&&%%&..                  ..&%%&&&.              ",
"              .*&&&&&.                    .&&&&&*.              ",
"              .*****..                    ..*****.              ",
"              ..****.                      .****..              ",
"               .$***..                    ..***$.               ",
"               .$$*$$.                    .$$*$$.               ",
"                .$$$$..                  ..$$$$.                ",
"                .$$$$#.                  .#$$$$.                ",
"                 .####..                ..####.                 ",
"                 .####-..              ..-####.                 ",
"                  .-----.              .-----.                  ",
"                  .-----;.            .;-----.                  ",
"                  ..;;;;;..          ..;;;;;..                  ",
"                   .;;;;==..        ..==;;;;.                   ",
"                    .==;==@.        .@==;==.                    ",
"                    ..===@@@.      .@@@===..                    ",
"                     .===@@@+.    .+@@@===.                     ",
"                     ..@@@@++..  ..++@@@@..                     ",
"                      ..@@@++O....O++@@@..                      ",
"                       ..++++OO..OO++++..                       ",
"                        .++++OO..OO++++.                        ",
"                        ..OOOOOooOOOOO..                        ",
"                         ..oOOOooOOOo..                         ",
"                          .oooooooooo.                          ",
"                           .oooXXooo.                           ",
"                           ..oXXXXo..                           ",
"                            ..XXXX..                            ",
"                             ..XX..                             ",
"                              ....                              ",
"                               ..                               ",
"                               ..                               ",
"                               ..                               ",
"                                                                ",
"                                                                ",
"                                                                ",
"                                                                ",
"                                                                ",
"                                                                ",
"                                                                ",
"                                                                ",
"                                                                ",
"                                                                ",
"                                                                ",
"                                                                "
};
